<svg width="171" height="95" viewBox="0 0 171 95" fill="none" xmlns="http://www.w3.org/2000/svg">
    <g filter="url(#filter0_d_118_175)">
    <path d="M165.472 0.150879L166.066 85.3948L31.596 86.332C16.6847 86.436 4.51241 74.4322 4.40847 59.5209L4.19069 28.2757C4.08676 13.3644 16.0905 1.19207 31.0019 1.08814L165.472 0.150879Z" fill="#EEEEEE"/>
    </g>
    <line x1="165.071" y1="87.0027" x2="164.791" y2="0.00318764" stroke="black" stroke-width="2"/>
    <path d="M67.353 21.9375V39H63.8373L56.9819 27.5625V39H53.4663V21.9375H56.9819L63.8491 33.3867V21.9375H67.353ZM77.5244 36.1406V30.4922C77.5244 30.0859 77.458 29.7383 77.3252 29.4492C77.1923 29.1523 76.9853 28.9219 76.7041 28.7578C76.4306 28.5938 76.0752 28.5117 75.6377 28.5117C75.2627 28.5117 74.9384 28.5781 74.665 28.7109C74.3916 28.8359 74.1806 29.0195 74.0322 29.2617C73.8838 29.4961 73.8095 29.7734 73.8095 30.0938H70.4345C70.4345 29.5547 70.5595 29.043 70.8095 28.5586C71.0595 28.0742 71.4228 27.6484 71.8994 27.2812C72.3759 26.9062 72.9423 26.6133 73.5986 26.4023C74.2627 26.1914 75.0048 26.0859 75.8252 26.0859C76.8095 26.0859 77.6845 26.25 78.4502 26.5781C79.2158 26.9062 79.8173 27.3984 80.2548 28.0547C80.7002 28.7109 80.9228 29.5312 80.9228 30.5156V35.9414C80.9228 36.6367 80.9658 37.207 81.0517 37.6523C81.1377 38.0898 81.2627 38.4727 81.4267 38.8008V39H78.0166C77.8525 38.6562 77.7275 38.2266 77.6416 37.7109C77.5634 37.1875 77.5244 36.6641 77.5244 36.1406ZM77.9697 31.2773L77.9931 33.1875H76.1064C75.6611 33.1875 75.2744 33.2383 74.9463 33.3398C74.6181 33.4414 74.3486 33.5859 74.1377 33.7734C73.9267 33.9531 73.7705 34.1641 73.6689 34.4062C73.5752 34.6484 73.5283 34.9141 73.5283 35.2031C73.5283 35.4922 73.5947 35.7539 73.7275 35.9883C73.8603 36.2148 74.0517 36.3945 74.3017 36.5273C74.5517 36.6523 74.8447 36.7148 75.1806 36.7148C75.6884 36.7148 76.1298 36.6133 76.5048 36.4102C76.8798 36.207 77.1689 35.957 77.372 35.6602C77.583 35.3633 77.6923 35.082 77.7002 34.8164L78.5908 36.2461C78.4658 36.5664 78.2939 36.8984 78.0752 37.2422C77.8642 37.5859 77.5947 37.9102 77.2666 38.2148C76.9384 38.5117 76.5439 38.7578 76.083 38.9531C75.622 39.1406 75.0752 39.2344 74.4423 39.2344C73.6377 39.2344 72.9072 39.0742 72.2509 38.7539C71.6025 38.4258 71.0869 37.9766 70.7041 37.4062C70.3291 36.8281 70.1416 36.1719 70.1416 35.4375C70.1416 34.7734 70.2666 34.1836 70.5166 33.668C70.7666 33.1523 71.1338 32.7188 71.6181 32.3672C72.1103 32.0078 72.7236 31.7383 73.458 31.5586C74.1923 31.3711 75.0439 31.2773 76.0127 31.2773H77.9697ZM90.2153 26.3203V28.7109H82.8325V26.3203H90.2153ZM84.6606 23.1914H88.0356V35.1797C88.0356 35.5469 88.0825 35.8281 88.1763 36.0234C88.2778 36.2188 88.4263 36.3555 88.6216 36.4336C88.8169 36.5039 89.063 36.5391 89.3598 36.5391C89.5708 36.5391 89.7583 36.5312 89.9223 36.5156C90.0942 36.4922 90.2388 36.4688 90.3559 36.4453L90.3677 38.9297C90.0786 39.0234 89.7661 39.0977 89.4302 39.1523C89.0942 39.207 88.7231 39.2344 88.3169 39.2344C87.5747 39.2344 86.9263 39.1133 86.3716 38.8711C85.8247 38.6211 85.4028 38.2227 85.1059 37.6758C84.8091 37.1289 84.6606 36.4102 84.6606 35.5195V23.1914ZM96.1797 26.3203V39H92.793V26.3203H96.1797ZM92.582 23.0156C92.582 22.5234 92.7539 22.1172 93.0977 21.7969C93.4414 21.4766 93.9023 21.3164 94.4805 21.3164C95.0508 21.3164 95.5078 21.4766 95.8516 21.7969C96.2031 22.1172 96.3789 22.5234 96.3789 23.0156C96.3789 23.5078 96.2031 23.9141 95.8516 24.2344C95.5078 24.5547 95.0508 24.7148 94.4805 24.7148C93.9023 24.7148 93.4414 24.5547 93.0977 24.2344C92.7539 23.9141 92.582 23.5078 92.582 23.0156ZM103.761 36.5391L106.574 26.3203H110.101L105.824 39H103.691L103.761 36.5391ZM101.828 26.3203L104.652 36.5508L104.71 39H102.566L98.2886 26.3203H101.828ZM117.765 39.2344C116.78 39.2344 115.898 39.0781 115.116 38.7656C114.335 38.4453 113.671 38.0039 113.124 37.4414C112.585 36.8789 112.171 36.2266 111.882 35.4844C111.593 34.7344 111.448 33.9375 111.448 33.0938V32.625C111.448 31.6641 111.585 30.7852 111.858 29.9883C112.132 29.1914 112.523 28.5 113.03 27.9141C113.546 27.3281 114.171 26.8789 114.905 26.5664C115.64 26.2461 116.468 26.0859 117.39 26.0859C118.288 26.0859 119.085 26.2344 119.78 26.5312C120.476 26.8281 121.058 27.25 121.526 27.7969C122.003 28.3438 122.362 29 122.605 29.7656C122.847 30.5234 122.968 31.3672 122.968 32.2969V33.7031H112.89V31.4531H119.651V31.1953C119.651 30.7266 119.565 30.3086 119.394 29.9414C119.23 29.5664 118.98 29.2695 118.644 29.0508C118.308 28.832 117.878 28.7227 117.355 28.7227C116.909 28.7227 116.526 28.8203 116.206 29.0156C115.886 29.2109 115.624 29.4844 115.421 29.8359C115.226 30.1875 115.077 30.6016 114.976 31.0781C114.882 31.5469 114.835 32.0625 114.835 32.625V33.0938C114.835 33.6016 114.905 34.0703 115.046 34.5C115.194 34.9297 115.401 35.3008 115.667 35.6133C115.94 35.9258 116.269 36.168 116.651 36.3398C117.042 36.5117 117.483 36.5977 117.976 36.5977C118.585 36.5977 119.151 36.4805 119.675 36.2461C120.206 36.0039 120.663 35.6406 121.046 35.1562L122.687 36.9375C122.421 37.3203 122.058 37.6875 121.597 38.0391C121.144 38.3906 120.597 38.6797 119.956 38.9062C119.315 39.125 118.585 39.2344 117.765 39.2344ZM55.9919 63.2578V66H47.402V63.2578H55.9919ZM48.5387 48.9375V66H45.0231V48.9375H48.5387ZM61.8391 53.3203V66H58.4523V53.3203H61.8391ZM58.2414 50.0156C58.2414 49.5234 58.4133 49.1172 58.757 48.7969C59.1008 48.4766 59.5617 48.3164 60.1398 48.3164C60.7102 48.3164 61.1672 48.4766 61.5109 48.7969C61.8625 49.1172 62.0383 49.5234 62.0383 50.0156C62.0383 50.5078 61.8625 50.9141 61.5109 51.2344C61.1672 51.5547 60.7102 51.7148 60.1398 51.7148C59.5617 51.7148 59.1008 51.5547 58.757 51.2344C58.4133 50.9141 58.2414 50.5078 58.2414 50.0156ZM71.9636 62.4961C71.9636 62.2539 71.8933 62.0352 71.7527 61.8398C71.612 61.6445 71.3503 61.4648 70.9675 61.3008C70.5925 61.1289 70.0495 60.9727 69.3386 60.832C68.698 60.6914 68.1003 60.5156 67.5456 60.3047C66.9987 60.0859 66.5222 59.8242 66.1159 59.5195C65.7175 59.2148 65.405 58.8555 65.1784 58.4414C64.9519 58.0195 64.8386 57.5391 64.8386 57C64.8386 56.4688 64.9519 55.9688 65.1784 55.5C65.4128 55.0312 65.7448 54.6172 66.1745 54.2578C66.612 53.8906 67.1433 53.6055 67.7683 53.4023C68.4011 53.1914 69.112 53.0859 69.9011 53.0859C71.0027 53.0859 71.948 53.2617 72.737 53.6133C73.5339 53.9648 74.1433 54.4492 74.5652 55.0664C74.9948 55.6758 75.2097 56.3711 75.2097 57.1523H71.8347C71.8347 56.8242 71.7644 56.5312 71.6237 56.2734C71.4909 56.0078 71.28 55.8008 70.9909 55.6523C70.7097 55.4961 70.3425 55.418 69.8894 55.418C69.5144 55.418 69.1902 55.4844 68.9167 55.6172C68.6433 55.7422 68.4323 55.9141 68.2839 56.1328C68.1433 56.3438 68.073 56.5781 68.073 56.8359C68.073 57.0312 68.112 57.207 68.1902 57.3633C68.2761 57.5117 68.4128 57.6484 68.6003 57.7734C68.7878 57.8984 69.03 58.0156 69.3269 58.125C69.6316 58.2266 70.0066 58.3203 70.4519 58.4062C71.3659 58.5938 72.1823 58.8398 72.9011 59.1445C73.6198 59.4414 74.1902 59.8477 74.612 60.3633C75.0339 60.8711 75.2448 61.5391 75.2448 62.3672C75.2448 62.9297 75.1198 63.4453 74.8698 63.9141C74.6198 64.3828 74.2605 64.793 73.7917 65.1445C73.323 65.4883 72.7605 65.7578 72.1042 65.9531C71.4558 66.1406 70.7253 66.2344 69.9128 66.2344C68.7331 66.2344 67.7331 66.0234 66.9128 65.6016C66.1003 65.1797 65.4831 64.6445 65.0612 63.9961C64.6472 63.3398 64.4402 62.668 64.4402 61.9805H67.6394C67.655 62.4414 67.7722 62.8125 67.9909 63.0938C68.2175 63.375 68.5027 63.5781 68.8464 63.7031C69.198 63.8281 69.5769 63.8906 69.9831 63.8906C70.4206 63.8906 70.7839 63.832 71.073 63.7148C71.362 63.5898 71.5808 63.4258 71.7292 63.2227C71.8855 63.0117 71.9636 62.7695 71.9636 62.4961ZM84.1272 53.3203V55.7109H76.7444V53.3203H84.1272ZM78.5725 50.1914H81.9475V62.1797C81.9475 62.5469 81.9944 62.8281 82.0881 63.0234C82.1897 63.2188 82.3381 63.3555 82.5334 63.4336C82.7287 63.5039 82.9748 63.5391 83.2717 63.5391C83.4827 63.5391 83.6702 63.5312 83.8342 63.5156C84.0061 63.4922 84.1506 63.4688 84.2678 63.4453L84.2795 65.9297C83.9905 66.0234 83.678 66.0977 83.342 66.1523C83.0061 66.207 82.635 66.2344 82.2287 66.2344C81.4866 66.2344 80.8381 66.1133 80.2834 65.8711C79.7366 65.6211 79.3147 65.2227 79.0178 64.6758C78.7209 64.1289 78.5725 63.4102 78.5725 62.5195V50.1914ZM90.0916 53.3203V66H86.7048V53.3203H90.0916ZM86.4939 50.0156C86.4939 49.5234 86.6658 49.1172 87.0095 48.7969C87.3533 48.4766 87.8142 48.3164 88.3923 48.3164C88.9627 48.3164 89.4197 48.4766 89.7634 48.7969C90.115 49.1172 90.2908 49.5234 90.2908 50.0156C90.2908 50.5078 90.115 50.9141 89.7634 51.2344C89.4197 51.5547 88.9627 51.7148 88.3923 51.7148C87.8142 51.7148 87.3533 51.5547 87.0095 51.2344C86.6658 50.9141 86.4939 50.5078 86.4939 50.0156ZM96.6653 56.0273V66H93.2903V53.3203H96.4544L96.6653 56.0273ZM96.1731 59.2148H95.2591C95.2591 58.2773 95.3802 57.4336 95.6223 56.6836C95.8645 55.9258 96.2044 55.2812 96.6419 54.75C97.0794 54.2109 97.5989 53.8008 98.2005 53.5195C98.8098 53.2305 99.4895 53.0859 100.24 53.0859C100.833 53.0859 101.376 53.1719 101.868 53.3438C102.361 53.5156 102.783 53.7891 103.134 54.1641C103.493 54.5391 103.767 55.0352 103.954 55.6523C104.15 56.2695 104.247 57.0234 104.247 57.9141V66H100.849V57.9023C100.849 57.3398 100.771 56.9023 100.615 56.5898C100.458 56.2773 100.228 56.0586 99.9231 55.9336C99.6263 55.8008 99.2591 55.7344 98.8216 55.7344C98.3684 55.7344 97.9739 55.8242 97.638 56.0039C97.3098 56.1836 97.0364 56.4336 96.8177 56.7539C96.6067 57.0664 96.4466 57.4336 96.3372 57.8555C96.2278 58.2773 96.1731 58.7305 96.1731 59.2148ZM115.321 53.3203H118.38V65.5781C118.38 66.7344 118.122 67.7148 117.606 68.5195C117.098 69.332 116.387 69.9453 115.473 70.3594C114.559 70.7812 113.497 70.9922 112.286 70.9922C111.755 70.9922 111.192 70.9219 110.598 70.7812C110.012 70.6406 109.45 70.4219 108.911 70.125C108.38 69.8281 107.934 69.4531 107.575 69L109.063 67.0078C109.454 67.4609 109.907 67.8125 110.423 68.0625C110.938 68.3203 111.509 68.4492 112.134 68.4492C112.743 68.4492 113.259 68.3359 113.68 68.1094C114.102 67.8906 114.427 67.5664 114.653 67.1367C114.88 66.7148 114.993 66.2031 114.993 65.6016V56.25L115.321 53.3203ZM106.79 59.8125V59.5664C106.79 58.5977 106.907 57.7188 107.141 56.9297C107.384 56.1328 107.723 55.4492 108.161 54.8789C108.606 54.3086 109.145 53.8672 109.778 53.5547C110.411 53.2422 111.126 53.0859 111.923 53.0859C112.766 53.0859 113.473 53.2422 114.044 53.5547C114.614 53.8672 115.083 54.3125 115.45 54.8906C115.817 55.4609 116.102 56.1367 116.305 56.918C116.516 57.6914 116.68 58.5391 116.798 59.4609V60C116.68 60.8828 116.505 61.7031 116.27 62.4609C116.036 63.2188 115.727 63.8828 115.345 64.4531C114.962 65.0156 114.485 65.4531 113.915 65.7656C113.352 66.0781 112.68 66.2344 111.899 66.2344C111.118 66.2344 110.411 66.0742 109.778 65.7539C109.153 65.4336 108.618 64.9844 108.173 64.4062C107.727 63.8281 107.384 63.1484 107.141 62.3672C106.907 61.5859 106.79 60.7344 106.79 59.8125ZM110.165 59.5664V59.8125C110.165 60.3359 110.216 60.8242 110.317 61.2773C110.419 61.7305 110.575 62.1328 110.786 62.4844C111.005 62.8281 111.274 63.0977 111.595 63.293C111.923 63.4805 112.309 63.5742 112.755 63.5742C113.372 63.5742 113.876 63.4453 114.266 63.1875C114.657 62.9219 114.95 62.5586 115.145 62.0977C115.341 61.6367 115.454 61.1055 115.485 60.5039V58.9688C115.47 58.4766 115.403 58.0352 115.286 57.6445C115.169 57.2461 115.005 56.9062 114.794 56.625C114.583 56.3438 114.309 56.125 113.973 55.9688C113.637 55.8125 113.239 55.7344 112.778 55.7344C112.333 55.7344 111.946 55.8359 111.618 56.0391C111.298 56.2344 111.028 56.5039 110.809 56.8477C110.598 57.1914 110.438 57.5977 110.329 58.0664C110.22 58.5273 110.165 59.0273 110.165 59.5664ZM128.34 62.4961C128.34 62.2539 128.27 62.0352 128.129 61.8398C127.989 61.6445 127.727 61.4648 127.344 61.3008C126.969 61.1289 126.426 60.9727 125.715 60.832C125.075 60.6914 124.477 60.5156 123.922 60.3047C123.375 60.0859 122.899 59.8242 122.493 59.5195C122.094 59.2148 121.782 58.8555 121.555 58.4414C121.328 58.0195 121.215 57.5391 121.215 57C121.215 56.4688 121.328 55.9688 121.555 55.5C121.789 55.0312 122.121 54.6172 122.551 54.2578C122.989 53.8906 123.52 53.6055 124.145 53.4023C124.778 53.1914 125.489 53.0859 126.278 53.0859C127.379 53.0859 128.325 53.2617 129.114 53.6133C129.91 53.9648 130.52 54.4492 130.942 55.0664C131.371 55.6758 131.586 56.3711 131.586 57.1523H128.211C128.211 56.8242 128.141 56.5312 128 56.2734C127.868 56.0078 127.657 55.8008 127.368 55.6523C127.086 55.4961 126.719 55.418 126.266 55.418C125.891 55.418 125.567 55.4844 125.293 55.6172C125.02 55.7422 124.809 55.9141 124.66 56.1328C124.52 56.3438 124.45 56.5781 124.45 56.8359C124.45 57.0312 124.489 57.207 124.567 57.3633C124.653 57.5117 124.789 57.6484 124.977 57.7734C125.164 57.8984 125.407 58.0156 125.703 58.125C126.008 58.2266 126.383 58.3203 126.828 58.4062C127.743 58.5938 128.559 58.8398 129.278 59.1445C129.996 59.4414 130.567 59.8477 130.989 60.3633C131.41 60.8711 131.621 61.5391 131.621 62.3672C131.621 62.9297 131.496 63.4453 131.246 63.9141C130.996 64.3828 130.637 64.793 130.168 65.1445C129.7 65.4883 129.137 65.7578 128.481 65.9531C127.832 66.1406 127.102 66.2344 126.289 66.2344C125.11 66.2344 124.11 66.0234 123.289 65.6016C122.477 65.1797 121.86 64.6445 121.438 63.9961C121.024 63.3398 120.817 62.668 120.817 61.9805H124.016C124.032 62.4414 124.149 62.8125 124.368 63.0938C124.594 63.375 124.879 63.5781 125.223 63.7031C125.575 63.8281 125.953 63.8906 126.36 63.8906C126.797 63.8906 127.16 63.832 127.45 63.7148C127.739 63.5898 127.957 63.4258 128.106 63.2227C128.262 63.0117 128.34 62.7695 128.34 62.4961Z" fill="black"/>
    <defs>
    <filter id="filter0_d_118_175" x="0.190002" y="0.150879" width="169.876" height="94.1818" filterUnits="userSpaceOnUse" color-interpolation-filters="sRGB">
    <feFlood flood-opacity="0" result="BackgroundImageFix"/>
    <feColorMatrix in="SourceAlpha" type="matrix" values="0 0 0 0 0 0 0 0 0 0 0 0 0 0 0 0 0 0 127 0" result="hardAlpha"/>
    <feOffset dy="4"/>
    <feGaussianBlur stdDeviation="2"/>
    <feComposite in2="hardAlpha" operator="out"/>
    <feColorMatrix type="matrix" values="0 0 0 0 0 0 0 0 0 0 0 0 0 0 0 0 0 0 0.25 0"/>
    <feBlend mode="normal" in2="BackgroundImageFix" result="effect1_dropShadow_118_175"/>
    <feBlend mode="normal" in="SourceGraphic" in2="effect1_dropShadow_118_175" result="shape"/>
    </filter>
    </defs>
    </svg>
    