<svg width="171" height="95" viewBox="0 0 171 95" fill="none" xmlns="http://www.w3.org/2000/svg">
<g filter="url(#filter0_d_118_175)">
<path d="M165.472 0.150879L166.066 85.3948L31.596 86.332C16.6847 86.436 4.51241 74.4322 4.40848 59.5209L4.1907 28.2757C4.08676 13.3644 16.0905 1.19207 31.0019 1.08814L165.472 0.150879Z" fill="#EEEEEE"/>
</g>
<line x1="165.071" y1="87.0027" x2="164.791" y2="0.00318764" stroke="black" stroke-width="2"/>
<path d="M57.5622 28.8867V31.6289H48.6559V28.8867H57.5622ZM49.6989 21.9375V39H46.1833V21.9375H49.6989ZM60.07 21.9375V39H56.5661V21.9375H60.07ZM62.8586 32.7891V32.543C62.8586 31.6133 62.9914 30.7578 63.257 29.9766C63.5227 29.1875 63.9094 28.5039 64.4172 27.9258C64.925 27.3477 65.55 26.8984 66.2922 26.5781C67.0344 26.25 67.8859 26.0859 68.8469 26.0859C69.8078 26.0859 70.6633 26.25 71.4133 26.5781C72.1633 26.8984 72.7922 27.3477 73.3 27.9258C73.8156 28.5039 74.2062 29.1875 74.4719 29.9766C74.7375 30.7578 74.8703 31.6133 74.8703 32.543V32.7891C74.8703 33.7109 74.7375 34.5664 74.4719 35.3555C74.2062 36.1367 73.8156 36.8203 73.3 37.4062C72.7922 37.9844 72.1672 38.4336 71.425 38.7539C70.6828 39.0742 69.8312 39.2344 68.8703 39.2344C67.9094 39.2344 67.0539 39.0742 66.3039 38.7539C65.5617 38.4336 64.9328 37.9844 64.4172 37.4062C63.9094 36.8203 63.5227 36.1367 63.257 35.3555C62.9914 34.5664 62.8586 33.7109 62.8586 32.7891ZM66.2336 32.543V32.7891C66.2336 33.3203 66.2805 33.8164 66.3742 34.2773C66.468 34.7383 66.6164 35.1445 66.8195 35.4961C67.0305 35.8398 67.3039 36.1094 67.6398 36.3047C67.9758 36.5 68.3859 36.5977 68.8703 36.5977C69.3391 36.5977 69.7414 36.5 70.0773 36.3047C70.4133 36.1094 70.6828 35.8398 70.8859 35.4961C71.0891 35.1445 71.2375 34.7383 71.3312 34.2773C71.4328 33.8164 71.4836 33.3203 71.4836 32.7891V32.543C71.4836 32.0273 71.4328 31.543 71.3312 31.0898C71.2375 30.6289 71.0852 30.2227 70.8742 29.8711C70.6711 29.5117 70.4016 29.2305 70.0656 29.0273C69.7297 28.8242 69.3234 28.7227 68.8469 28.7227C68.3703 28.7227 67.9641 28.8242 67.6281 29.0273C67.3 29.2305 67.0305 29.5117 66.8195 29.8711C66.6164 30.2227 66.468 30.6289 66.3742 31.0898C66.2805 31.543 66.2336 32.0273 66.2336 32.543ZM84.9245 35.9648V26.3203H88.2995V39H85.1237L84.9245 35.9648ZM85.2995 33.3633L86.2956 33.3398C86.2956 34.1836 86.198 34.9688 86.0027 35.6953C85.8073 36.4141 85.5144 37.0391 85.1237 37.5703C84.7331 38.0938 84.2409 38.5039 83.6472 38.8008C83.0534 39.0898 82.3542 39.2344 81.5495 39.2344C80.9323 39.2344 80.362 39.1484 79.8386 38.9766C79.323 38.7969 78.8777 38.5195 78.5027 38.1445C78.1355 37.7617 77.8464 37.2734 77.6355 36.6797C77.4323 36.0781 77.3308 35.3555 77.3308 34.5117V26.3203H80.7058V34.5352C80.7058 34.9102 80.7487 35.2266 80.8347 35.4844C80.9284 35.7422 81.0573 35.9531 81.2214 36.1172C81.3855 36.2812 81.5769 36.3984 81.7956 36.4688C82.0222 36.5391 82.2722 36.5742 82.5456 36.5742C83.2409 36.5742 83.7878 36.4336 84.1862 36.1523C84.5925 35.8711 84.8777 35.4883 85.0417 35.0039C85.2136 34.5117 85.2995 33.9648 85.2995 33.3633ZM98.2131 35.4961C98.2131 35.2539 98.1428 35.0352 98.0022 34.8398C97.8616 34.6445 97.5998 34.4648 97.217 34.3008C96.842 34.1289 96.2991 33.9727 95.5881 33.832C94.9475 33.6914 94.3498 33.5156 93.7952 33.3047C93.2483 33.0859 92.7717 32.8242 92.3655 32.5195C91.967 32.2148 91.6545 31.8555 91.428 31.4414C91.2014 31.0195 91.0881 30.5391 91.0881 30C91.0881 29.4688 91.2014 28.9688 91.428 28.5C91.6623 28.0312 91.9944 27.6172 92.4241 27.2578C92.8616 26.8906 93.3928 26.6055 94.0178 26.4023C94.6506 26.1914 95.3616 26.0859 96.1506 26.0859C97.2522 26.0859 98.1975 26.2617 98.9866 26.6133C99.7834 26.9648 100.393 27.4492 100.815 28.0664C101.244 28.6758 101.459 29.3711 101.459 30.1523H98.0842C98.0842 29.8242 98.0139 29.5312 97.8733 29.2734C97.7405 29.0078 97.5295 28.8008 97.2405 28.6523C96.9592 28.4961 96.592 28.418 96.1389 28.418C95.7639 28.418 95.4397 28.4844 95.1662 28.6172C94.8928 28.7422 94.6819 28.9141 94.5334 29.1328C94.3928 29.3438 94.3225 29.5781 94.3225 29.8359C94.3225 30.0312 94.3616 30.207 94.4397 30.3633C94.5256 30.5117 94.6623 30.6484 94.8498 30.7734C95.0373 30.8984 95.2795 31.0156 95.5764 31.125C95.8811 31.2266 96.2561 31.3203 96.7014 31.4062C97.6155 31.5938 98.4319 31.8398 99.1506 32.1445C99.8694 32.4414 100.44 32.8477 100.862 33.3633C101.283 33.8711 101.494 34.5391 101.494 35.3672C101.494 35.9297 101.369 36.4453 101.119 36.9141C100.869 37.3828 100.51 37.793 100.041 38.1445C99.5725 38.4883 99.01 38.7578 98.3537 38.9531C97.7053 39.1406 96.9748 39.2344 96.1623 39.2344C94.9827 39.2344 93.9827 39.0234 93.1623 38.6016C92.3498 38.1797 91.7327 37.6445 91.3108 36.9961C90.8967 36.3398 90.6897 35.668 90.6897 34.9805H93.8889C93.9045 35.4414 94.0217 35.8125 94.2405 36.0938C94.467 36.375 94.7522 36.5781 95.0959 36.7031C95.4475 36.8281 95.8264 36.8906 96.2327 36.8906C96.6702 36.8906 97.0334 36.832 97.3225 36.7148C97.6116 36.5898 97.8303 36.4258 97.9787 36.2227C98.135 36.0117 98.2131 35.7695 98.2131 35.4961ZM107.728 26.3203V39H104.342V26.3203H107.728ZM104.131 23.0156C104.131 22.5234 104.302 22.1172 104.646 21.7969C104.99 21.4766 105.451 21.3164 106.029 21.3164C106.599 21.3164 107.056 21.4766 107.4 21.7969C107.752 22.1172 107.927 22.5234 107.927 23.0156C107.927 23.5078 107.752 23.9141 107.4 24.2344C107.056 24.5547 106.599 24.7148 106.029 24.7148C105.451 24.7148 104.99 24.5547 104.646 24.2344C104.302 23.9141 104.131 23.5078 104.131 23.0156ZM115.298 39H111.9V25.1953C111.9 24.2344 112.087 23.4258 112.462 22.7695C112.845 22.1055 113.38 21.6055 114.068 21.2695C114.763 20.9258 115.587 20.7539 116.54 20.7539C116.853 20.7539 117.154 20.7773 117.443 20.8242C117.732 20.8633 118.013 20.9141 118.286 20.9766L118.251 23.5195C118.103 23.4805 117.947 23.4531 117.783 23.4375C117.618 23.4219 117.427 23.4141 117.208 23.4141C116.802 23.4141 116.454 23.4844 116.165 23.625C115.884 23.7578 115.669 23.957 115.521 24.2227C115.372 24.4883 115.298 24.8125 115.298 25.1953V39ZM117.829 26.3203V28.7109H110.013V26.3203H117.829ZM123.841 37.5703L127.204 26.3203H130.825L125.727 40.9102C125.618 41.2305 125.47 41.5742 125.282 41.9414C125.102 42.3086 124.856 42.6562 124.544 42.9844C124.239 43.3203 123.852 43.5938 123.384 43.8047C122.923 44.0156 122.356 44.1211 121.684 44.1211C121.364 44.1211 121.102 44.1016 120.899 44.0625C120.696 44.0234 120.454 43.9688 120.173 43.8984V41.4258C120.259 41.4258 120.348 41.4258 120.442 41.4258C120.536 41.4336 120.626 41.4375 120.712 41.4375C121.157 41.4375 121.52 41.3867 121.802 41.2852C122.083 41.1836 122.309 41.0273 122.481 40.8164C122.653 40.6133 122.79 40.3477 122.891 40.0195L123.841 37.5703ZM122.434 26.3203L125.188 35.5078L125.669 39.082L123.372 39.3281L118.813 26.3203H122.434ZM55.9919 63.2578V66H47.402V63.2578H55.9919ZM48.5387 48.9375V66H45.0231V48.9375H48.5387ZM61.8391 53.3203V66H58.4523V53.3203H61.8391ZM58.2414 50.0156C58.2414 49.5234 58.4133 49.1172 58.757 48.7969C59.1008 48.4766 59.5617 48.3164 60.1398 48.3164C60.7102 48.3164 61.1672 48.4766 61.5109 48.7969C61.8625 49.1172 62.0383 49.5234 62.0383 50.0156C62.0383 50.5078 61.8625 50.9141 61.5109 51.2344C61.1672 51.5547 60.7102 51.7148 60.1398 51.7148C59.5617 51.7148 59.1008 51.5547 58.757 51.2344C58.4133 50.9141 58.2414 50.5078 58.2414 50.0156ZM71.9636 62.4961C71.9636 62.2539 71.8933 62.0352 71.7527 61.8398C71.612 61.6445 71.3503 61.4648 70.9675 61.3008C70.5925 61.1289 70.0495 60.9727 69.3386 60.832C68.698 60.6914 68.1003 60.5156 67.5456 60.3047C66.9987 60.0859 66.5222 59.8242 66.1159 59.5195C65.7175 59.2148 65.405 58.8555 65.1784 58.4414C64.9519 58.0195 64.8386 57.5391 64.8386 57C64.8386 56.4688 64.9519 55.9688 65.1784 55.5C65.4128 55.0312 65.7448 54.6172 66.1745 54.2578C66.612 53.8906 67.1433 53.6055 67.7683 53.4023C68.4011 53.1914 69.112 53.0859 69.9011 53.0859C71.0027 53.0859 71.948 53.2617 72.737 53.6133C73.5339 53.9648 74.1433 54.4492 74.5652 55.0664C74.9948 55.6758 75.2097 56.3711 75.2097 57.1523H71.8347C71.8347 56.8242 71.7644 56.5312 71.6237 56.2734C71.4909 56.0078 71.28 55.8008 70.9909 55.6523C70.7097 55.4961 70.3425 55.418 69.8894 55.418C69.5144 55.418 69.1902 55.4844 68.9167 55.6172C68.6433 55.7422 68.4323 55.9141 68.2839 56.1328C68.1433 56.3438 68.073 56.5781 68.073 56.8359C68.073 57.0312 68.112 57.207 68.1902 57.3633C68.2761 57.5117 68.4128 57.6484 68.6003 57.7734C68.7878 57.8984 69.03 58.0156 69.3269 58.125C69.6316 58.2266 70.0066 58.3203 70.4519 58.4062C71.3659 58.5938 72.1823 58.8398 72.9011 59.1445C73.6198 59.4414 74.1902 59.8477 74.612 60.3633C75.0339 60.8711 75.2448 61.5391 75.2448 62.3672C75.2448 62.9297 75.1198 63.4453 74.8698 63.9141C74.6198 64.3828 74.2605 64.793 73.7917 65.1445C73.323 65.4883 72.7605 65.7578 72.1042 65.9531C71.4558 66.1406 70.7253 66.2344 69.9128 66.2344C68.7331 66.2344 67.7331 66.0234 66.9128 65.6016C66.1003 65.1797 65.4831 64.6445 65.0612 63.9961C64.6472 63.3398 64.4402 62.668 64.4402 61.9805H67.6394C67.655 62.4414 67.7722 62.8125 67.9909 63.0938C68.2175 63.375 68.5027 63.5781 68.8464 63.7031C69.198 63.8281 69.5769 63.8906 69.9831 63.8906C70.4206 63.8906 70.7839 63.832 71.073 63.7148C71.362 63.5898 71.5808 63.4258 71.7292 63.2227C71.8855 63.0117 71.9636 62.7695 71.9636 62.4961ZM84.1272 53.3203V55.7109H76.7444V53.3203H84.1272ZM78.5725 50.1914H81.9475V62.1797C81.9475 62.5469 81.9944 62.8281 82.0881 63.0234C82.1897 63.2188 82.3381 63.3555 82.5334 63.4336C82.7287 63.5039 82.9748 63.5391 83.2717 63.5391C83.4827 63.5391 83.6702 63.5312 83.8342 63.5156C84.0061 63.4922 84.1506 63.4688 84.2678 63.4453L84.2795 65.9297C83.9905 66.0234 83.678 66.0977 83.342 66.1523C83.0061 66.207 82.635 66.2344 82.2287 66.2344C81.4866 66.2344 80.8381 66.1133 80.2834 65.8711C79.7366 65.6211 79.3147 65.2227 79.0178 64.6758C78.7209 64.1289 78.5725 63.4102 78.5725 62.5195V50.1914ZM90.0916 53.3203V66H86.7048V53.3203H90.0916ZM86.4939 50.0156C86.4939 49.5234 86.6658 49.1172 87.0095 48.7969C87.3533 48.4766 87.8142 48.3164 88.3923 48.3164C88.9627 48.3164 89.4197 48.4766 89.7634 48.7969C90.115 49.1172 90.2908 49.5234 90.2908 50.0156C90.2908 50.5078 90.115 50.9141 89.7634 51.2344C89.4197 51.5547 88.9627 51.7148 88.3923 51.7148C87.8142 51.7148 87.3533 51.5547 87.0095 51.2344C86.6658 50.9141 86.4939 50.5078 86.4939 50.0156ZM96.6653 56.0273V66H93.2903V53.3203H96.4544L96.6653 56.0273ZM96.1731 59.2148H95.2591C95.2591 58.2773 95.3802 57.4336 95.6223 56.6836C95.8645 55.9258 96.2044 55.2812 96.6419 54.75C97.0794 54.2109 97.5989 53.8008 98.2005 53.5195C98.8098 53.2305 99.4895 53.0859 100.24 53.0859C100.833 53.0859 101.376 53.1719 101.868 53.3438C102.361 53.5156 102.783 53.7891 103.134 54.1641C103.493 54.5391 103.767 55.0352 103.954 55.6523C104.15 56.2695 104.247 57.0234 104.247 57.9141V66H100.849V57.9023C100.849 57.3398 100.771 56.9023 100.615 56.5898C100.458 56.2773 100.228 56.0586 99.9231 55.9336C99.6263 55.8008 99.2591 55.7344 98.8216 55.7344C98.3684 55.7344 97.9739 55.8242 97.638 56.0039C97.3098 56.1836 97.0364 56.4336 96.8177 56.7539C96.6067 57.0664 96.4466 57.4336 96.3372 57.8555C96.2278 58.2773 96.1731 58.7305 96.1731 59.2148ZM115.321 53.3203H118.38V65.5781C118.38 66.7344 118.122 67.7148 117.606 68.5195C117.098 69.332 116.387 69.9453 115.473 70.3594C114.559 70.7812 113.497 70.9922 112.286 70.9922C111.755 70.9922 111.192 70.9219 110.598 70.7812C110.012 70.6406 109.45 70.4219 108.911 70.125C108.38 69.8281 107.934 69.4531 107.575 69L109.063 67.0078C109.454 67.4609 109.907 67.8125 110.423 68.0625C110.938 68.3203 111.509 68.4492 112.134 68.4492C112.743 68.4492 113.259 68.3359 113.68 68.1094C114.102 67.8906 114.427 67.5664 114.653 67.1367C114.88 66.7148 114.993 66.2031 114.993 65.6016V56.25L115.321 53.3203ZM106.79 59.8125V59.5664C106.79 58.5977 106.907 57.7188 107.141 56.9297C107.384 56.1328 107.723 55.4492 108.161 54.8789C108.606 54.3086 109.145 53.8672 109.778 53.5547C110.411 53.2422 111.126 53.0859 111.923 53.0859C112.766 53.0859 113.473 53.2422 114.044 53.5547C114.614 53.8672 115.083 54.3125 115.45 54.8906C115.817 55.4609 116.102 56.1367 116.305 56.918C116.516 57.6914 116.68 58.5391 116.798 59.4609V60C116.68 60.8828 116.505 61.7031 116.27 62.4609C116.036 63.2188 115.727 63.8828 115.345 64.4531C114.962 65.0156 114.485 65.4531 113.915 65.7656C113.352 66.0781 112.68 66.2344 111.899 66.2344C111.118 66.2344 110.411 66.0742 109.778 65.7539C109.153 65.4336 108.618 64.9844 108.173 64.4062C107.727 63.8281 107.384 63.1484 107.141 62.3672C106.907 61.5859 106.79 60.7344 106.79 59.8125ZM110.165 59.5664V59.8125C110.165 60.3359 110.216 60.8242 110.317 61.2773C110.419 61.7305 110.575 62.1328 110.786 62.4844C111.005 62.8281 111.274 63.0977 111.595 63.293C111.923 63.4805 112.309 63.5742 112.755 63.5742C113.372 63.5742 113.876 63.4453 114.266 63.1875C114.657 62.9219 114.95 62.5586 115.145 62.0977C115.341 61.6367 115.454 61.1055 115.485 60.5039V58.9688C115.47 58.4766 115.403 58.0352 115.286 57.6445C115.169 57.2461 115.005 56.9062 114.794 56.625C114.583 56.3438 114.309 56.125 113.973 55.9688C113.637 55.8125 113.239 55.7344 112.778 55.7344C112.333 55.7344 111.946 55.8359 111.618 56.0391C111.298 56.2344 111.028 56.5039 110.809 56.8477C110.598 57.1914 110.438 57.5977 110.329 58.0664C110.22 58.5273 110.165 59.0273 110.165 59.5664ZM128.34 62.4961C128.34 62.2539 128.27 62.0352 128.129 61.8398C127.989 61.6445 127.727 61.4648 127.344 61.3008C126.969 61.1289 126.426 60.9727 125.715 60.832C125.075 60.6914 124.477 60.5156 123.922 60.3047C123.375 60.0859 122.899 59.8242 122.493 59.5195C122.094 59.2148 121.782 58.8555 121.555 58.4414C121.328 58.0195 121.215 57.5391 121.215 57C121.215 56.4688 121.328 55.9688 121.555 55.5C121.789 55.0312 122.121 54.6172 122.551 54.2578C122.989 53.8906 123.52 53.6055 124.145 53.4023C124.778 53.1914 125.489 53.0859 126.278 53.0859C127.379 53.0859 128.325 53.2617 129.114 53.6133C129.91 53.9648 130.52 54.4492 130.942 55.0664C131.371 55.6758 131.586 56.3711 131.586 57.1523H128.211C128.211 56.8242 128.141 56.5312 128 56.2734C127.868 56.0078 127.657 55.8008 127.368 55.6523C127.086 55.4961 126.719 55.418 126.266 55.418C125.891 55.418 125.567 55.4844 125.293 55.6172C125.02 55.7422 124.809 55.9141 124.66 56.1328C124.52 56.3438 124.45 56.5781 124.45 56.8359C124.45 57.0312 124.489 57.207 124.567 57.3633C124.653 57.5117 124.789 57.6484 124.977 57.7734C125.164 57.8984 125.407 58.0156 125.703 58.125C126.008 58.2266 126.383 58.3203 126.828 58.4062C127.743 58.5938 128.559 58.8398 129.278 59.1445C129.996 59.4414 130.567 59.8477 130.989 60.3633C131.41 60.8711 131.621 61.5391 131.621 62.3672C131.621 62.9297 131.496 63.4453 131.246 63.9141C130.996 64.3828 130.637 64.793 130.168 65.1445C129.7 65.4883 129.137 65.7578 128.481 65.9531C127.832 66.1406 127.102 66.2344 126.289 66.2344C125.11 66.2344 124.11 66.0234 123.289 65.6016C122.477 65.1797 121.86 64.6445 121.438 63.9961C121.024 63.3398 120.817 62.668 120.817 61.9805H124.016C124.032 62.4414 124.149 62.8125 124.368 63.0938C124.594 63.375 124.879 63.5781 125.223 63.7031C125.575 63.8281 125.953 63.8906 126.36 63.8906C126.797 63.8906 127.16 63.832 127.45 63.7148C127.739 63.5898 127.957 63.4258 128.106 63.2227C128.262 63.0117 128.34 62.7695 128.34 62.4961Z" fill="black"/>
<defs>
<filter id="filter0_d_118_175" x="0.190002" y="0.150879" width="169.876" height="94.1818" filterUnits="userSpaceOnUse" color-interpolation-filters="sRGB">
<feFlood flood-opacity="0" result="BackgroundImageFix"/>
<feColorMatrix in="SourceAlpha" type="matrix" values="0 0 0 0 0 0 0 0 0 0 0 0 0 0 0 0 0 0 127 0" result="hardAlpha"/>
<feOffset dy="4"/>
<feGaussianBlur stdDeviation="2"/>
<feComposite in2="hardAlpha" operator="out"/>
<feColorMatrix type="matrix" values="0 0 0 0 0 0 0 0 0 0 0 0 0 0 0 0 0 0 0.25 0"/>
<feBlend mode="normal" in2="BackgroundImageFix" result="effect1_dropShadow_118_175"/>
<feBlend mode="normal" in="SourceGraphic" in2="effect1_dropShadow_118_175" result="shape"/>
</filter>
</defs>
</svg>
