<svg width="170" height="95" viewBox="0 0 170 95" fill="none" xmlns="http://www.w3.org/2000/svg">
<g filter="url(#filter0_d_118_176)">
<path d="M4.31934 86.8501L4.00008 1.60473L138.472 1.10112C153.384 1.04527 165.518 13.0882 165.573 27.9998L165.69 59.2455C165.746 74.1571 153.703 86.2906 138.792 86.3465L4.31934 86.8501Z" fill="#EEEEEE"/>
</g>
<line x1="5" y1="4.01944e-08" x2="5" y2="87" stroke="black" stroke-width="2"/>
<path d="M51.9316 35.2578V38H42.8495V35.2578H51.9316ZM43.998 20.9375V38H40.4823V20.9375H43.998ZM50.748 27.8867V30.5586H42.8495V27.8867H50.748ZM51.9198 20.9375V23.6914H42.8495V20.9375H51.9198ZM56.9702 25.3203L59.0678 29.1758L61.2241 25.3203H64.8217L61.2358 31.5195L64.9858 38H61.3764L59.0913 33.9219L56.8061 38H53.1967L56.9467 31.5195L53.3608 25.3203H56.9702ZM73.1533 25.3203V27.7109H65.7705V25.3203H73.1533ZM67.5986 22.1914H70.9736V34.1797C70.9736 34.5469 71.0205 34.8281 71.1142 35.0234C71.2158 35.2188 71.3642 35.3555 71.5595 35.4336C71.7548 35.5039 72.0009 35.5391 72.2978 35.5391C72.5088 35.5391 72.6963 35.5312 72.8603 35.5156C73.0322 35.4922 73.1767 35.4688 73.2939 35.4453L73.3056 37.9297C73.0166 38.0234 72.7041 38.0977 72.3681 38.1523C72.0322 38.207 71.6611 38.2344 71.2548 38.2344C70.5127 38.2344 69.8642 38.1133 69.3095 37.8711C68.7627 37.6211 68.3408 37.2227 68.0439 36.6758C67.747 36.1289 67.5986 35.4102 67.5986 34.5195V22.1914ZM81.3911 38.2344C80.4067 38.2344 79.5239 38.0781 78.7427 37.7656C77.9614 37.4453 77.2973 37.0039 76.7505 36.4414C76.2114 35.8789 75.7973 35.2266 75.5083 34.4844C75.2192 33.7344 75.0747 32.9375 75.0747 32.0938V31.625C75.0747 30.6641 75.2114 29.7852 75.4848 28.9883C75.7583 28.1914 76.1489 27.5 76.6567 26.9141C77.1723 26.3281 77.7973 25.8789 78.5317 25.5664C79.2661 25.2461 80.0942 25.0859 81.0161 25.0859C81.9145 25.0859 82.7114 25.2344 83.4067 25.5312C84.102 25.8281 84.6841 26.25 85.1528 26.7969C85.6294 27.3438 85.9888 28 86.2309 28.7656C86.4731 29.5234 86.5942 30.3672 86.5942 31.2969V32.7031H76.5161V30.4531H83.2778V30.1953C83.2778 29.7266 83.1919 29.3086 83.02 28.9414C82.8559 28.5664 82.6059 28.2695 82.27 28.0508C81.9341 27.832 81.5044 27.7227 80.9809 27.7227C80.5356 27.7227 80.1528 27.8203 79.8325 28.0156C79.5122 28.2109 79.2505 28.4844 79.0473 28.8359C78.852 29.1875 78.7036 29.6016 78.602 30.0781C78.5083 30.5469 78.4614 31.0625 78.4614 31.625V32.0938C78.4614 32.6016 78.5317 33.0703 78.6723 33.5C78.8208 33.9297 79.0278 34.3008 79.2934 34.6133C79.5669 34.9258 79.895 35.168 80.2778 35.3398C80.6684 35.5117 81.1098 35.5977 81.602 35.5977C82.2114 35.5977 82.7778 35.4805 83.3013 35.2461C83.8325 35.0039 84.2895 34.6406 84.6723 34.1562L86.313 35.9375C86.0473 36.3203 85.6841 36.6875 85.2231 37.0391C84.77 37.3906 84.2231 37.6797 83.5825 37.9062C82.9419 38.125 82.2114 38.2344 81.3911 38.2344ZM92.3711 28.0859V38H88.9961V25.3203H92.1719L92.3711 28.0859ZM96.1914 25.2383L96.1328 28.3672C95.9688 28.3438 95.7695 28.3242 95.5352 28.3086C95.3086 28.2852 95.1016 28.2734 94.9141 28.2734C94.4375 28.2734 94.0234 28.3359 93.6719 28.4609C93.3281 28.5781 93.0391 28.7539 92.8047 28.9883C92.5781 29.2227 92.4062 29.5078 92.2891 29.8438C92.1797 30.1797 92.1172 30.5625 92.1016 30.9922L91.4219 30.7812C91.4219 29.9609 91.5039 29.207 91.668 28.5195C91.832 27.8242 92.0703 27.2188 92.3828 26.7031C92.7031 26.1875 93.0938 25.7891 93.5547 25.5078C94.0156 25.2266 94.543 25.0859 95.1367 25.0859C95.3242 25.0859 95.5156 25.1016 95.7109 25.1328C95.9062 25.1562 96.0664 25.1914 96.1914 25.2383ZM101.57 28.0273V38H98.1948V25.3203H101.359L101.57 28.0273ZM101.078 31.2148H100.164C100.164 30.2773 100.285 29.4336 100.527 28.6836C100.769 27.9258 101.109 27.2812 101.546 26.75C101.984 26.2109 102.503 25.8008 103.105 25.5195C103.714 25.2305 104.394 25.0859 105.144 25.0859C105.738 25.0859 106.281 25.1719 106.773 25.3438C107.265 25.5156 107.687 25.7891 108.039 26.1641C108.398 26.5391 108.671 27.0352 108.859 27.6523C109.054 28.2695 109.152 29.0234 109.152 29.9141V38H105.753V29.9023C105.753 29.3398 105.675 28.9023 105.519 28.5898C105.363 28.2773 105.132 28.0586 104.828 27.9336C104.531 27.8008 104.164 27.7344 103.726 27.7344C103.273 27.7344 102.878 27.8242 102.543 28.0039C102.214 28.1836 101.941 28.4336 101.722 28.7539C101.511 29.0664 101.351 29.4336 101.242 29.8555C101.132 30.2773 101.078 30.7305 101.078 31.2148ZM119.042 35.1406V29.4922C119.042 29.0859 118.976 28.7383 118.843 28.4492C118.71 28.1523 118.503 27.9219 118.222 27.7578C117.948 27.5938 117.593 27.5117 117.155 27.5117C116.78 27.5117 116.456 27.5781 116.183 27.7109C115.909 27.8359 115.698 28.0195 115.55 28.2617C115.401 28.4961 115.327 28.7734 115.327 29.0938H111.952C111.952 28.5547 112.077 28.043 112.327 27.5586C112.577 27.0742 112.94 26.6484 113.417 26.2812C113.894 25.9062 114.46 25.6133 115.116 25.4023C115.78 25.1914 116.522 25.0859 117.343 25.0859C118.327 25.0859 119.202 25.25 119.968 25.5781C120.733 25.9062 121.335 26.3984 121.772 27.0547C122.218 27.7109 122.44 28.5312 122.44 29.5156V34.9414C122.44 35.6367 122.483 36.207 122.569 36.6523C122.655 37.0898 122.78 37.4727 122.944 37.8008V38H119.534C119.37 37.6562 119.245 37.2266 119.159 36.7109C119.081 36.1875 119.042 35.6641 119.042 35.1406ZM119.487 30.2773L119.511 32.1875H117.624C117.179 32.1875 116.792 32.2383 116.464 32.3398C116.136 32.4414 115.866 32.5859 115.655 32.7734C115.444 32.9531 115.288 33.1641 115.187 33.4062C115.093 33.6484 115.046 33.9141 115.046 34.2031C115.046 34.4922 115.112 34.7539 115.245 34.9883C115.378 35.2148 115.569 35.3945 115.819 35.5273C116.069 35.6523 116.362 35.7148 116.698 35.7148C117.206 35.7148 117.647 35.6133 118.022 35.4102C118.397 35.207 118.687 34.957 118.89 34.6602C119.101 34.3633 119.21 34.082 119.218 33.8164L120.108 35.2461C119.983 35.5664 119.812 35.8984 119.593 36.2422C119.382 36.5859 119.112 36.9102 118.784 37.2148C118.456 37.5117 118.062 37.7578 117.601 37.9531C117.14 38.1406 116.593 38.2344 115.96 38.2344C115.155 38.2344 114.425 38.0742 113.769 37.7539C113.12 37.4258 112.605 36.9766 112.222 36.4062C111.847 35.8281 111.659 35.1719 111.659 34.4375C111.659 33.7734 111.784 33.1836 112.034 32.668C112.284 32.1523 112.651 31.7188 113.136 31.3672C113.628 31.0078 114.241 30.7383 114.976 30.5586C115.71 30.3711 116.562 30.2773 117.53 30.2773H119.487ZM129.085 20V38H125.698V20H129.085ZM52.9919 62.2578V65H44.402V62.2578H52.9919ZM45.5387 47.9375V65H42.0231V47.9375H45.5387ZM58.8391 52.3203V65H55.4523V52.3203H58.8391ZM55.2414 49.0156C55.2414 48.5234 55.4133 48.1172 55.757 47.7969C56.1008 47.4766 56.5617 47.3164 57.1398 47.3164C57.7102 47.3164 58.1672 47.4766 58.5109 47.7969C58.8625 48.1172 59.0383 48.5234 59.0383 49.0156C59.0383 49.5078 58.8625 49.9141 58.5109 50.2344C58.1672 50.5547 57.7102 50.7148 57.1398 50.7148C56.5617 50.7148 56.1008 50.5547 55.757 50.2344C55.4133 49.9141 55.2414 49.5078 55.2414 49.0156ZM68.9636 61.4961C68.9636 61.2539 68.8933 61.0352 68.7527 60.8398C68.612 60.6445 68.3503 60.4648 67.9675 60.3008C67.5925 60.1289 67.0495 59.9727 66.3386 59.832C65.698 59.6914 65.1003 59.5156 64.5456 59.3047C63.9987 59.0859 63.5222 58.8242 63.1159 58.5195C62.7175 58.2148 62.405 57.8555 62.1784 57.4414C61.9519 57.0195 61.8386 56.5391 61.8386 56C61.8386 55.4688 61.9519 54.9688 62.1784 54.5C62.4128 54.0312 62.7448 53.6172 63.1745 53.2578C63.612 52.8906 64.1433 52.6055 64.7683 52.4023C65.4011 52.1914 66.112 52.0859 66.9011 52.0859C68.0027 52.0859 68.948 52.2617 69.737 52.6133C70.5339 52.9648 71.1433 53.4492 71.5652 54.0664C71.9948 54.6758 72.2097 55.3711 72.2097 56.1523H68.8347C68.8347 55.8242 68.7644 55.5312 68.6237 55.2734C68.4909 55.0078 68.28 54.8008 67.9909 54.6523C67.7097 54.4961 67.3425 54.418 66.8894 54.418C66.5144 54.418 66.1902 54.4844 65.9167 54.6172C65.6433 54.7422 65.4323 54.9141 65.2839 55.1328C65.1433 55.3438 65.073 55.5781 65.073 55.8359C65.073 56.0312 65.112 56.207 65.1902 56.3633C65.2761 56.5117 65.4128 56.6484 65.6003 56.7734C65.7878 56.8984 66.03 57.0156 66.3269 57.125C66.6316 57.2266 67.0066 57.3203 67.4519 57.4062C68.3659 57.5938 69.1823 57.8398 69.9011 58.1445C70.6198 58.4414 71.1902 58.8477 71.612 59.3633C72.0339 59.8711 72.2448 60.5391 72.2448 61.3672C72.2448 61.9297 72.1198 62.4453 71.8698 62.9141C71.6198 63.3828 71.2605 63.793 70.7917 64.1445C70.323 64.4883 69.7605 64.7578 69.1042 64.9531C68.4558 65.1406 67.7253 65.2344 66.9128 65.2344C65.7331 65.2344 64.7331 65.0234 63.9128 64.6016C63.1003 64.1797 62.4831 63.6445 62.0612 62.9961C61.6472 62.3398 61.4402 61.668 61.4402 60.9805H64.6394C64.655 61.4414 64.7722 61.8125 64.9909 62.0938C65.2175 62.375 65.5027 62.5781 65.8464 62.7031C66.198 62.8281 66.5769 62.8906 66.9831 62.8906C67.4206 62.8906 67.7839 62.832 68.073 62.7148C68.362 62.5898 68.5808 62.4258 68.7292 62.2227C68.8855 62.0117 68.9636 61.7695 68.9636 61.4961ZM81.1272 52.3203V54.7109H73.7444V52.3203H81.1272ZM75.5725 49.1914H78.9475V61.1797C78.9475 61.5469 78.9944 61.8281 79.0881 62.0234C79.1897 62.2188 79.3381 62.3555 79.5334 62.4336C79.7287 62.5039 79.9748 62.5391 80.2717 62.5391C80.4827 62.5391 80.6702 62.5312 80.8342 62.5156C81.0061 62.4922 81.1506 62.4688 81.2678 62.4453L81.2795 64.9297C80.9905 65.0234 80.678 65.0977 80.342 65.1523C80.0061 65.207 79.635 65.2344 79.2287 65.2344C78.4866 65.2344 77.8381 65.1133 77.2834 64.8711C76.7366 64.6211 76.3147 64.2227 76.0178 63.6758C75.7209 63.1289 75.5725 62.4102 75.5725 61.5195V49.1914ZM87.0916 52.3203V65H83.7048V52.3203H87.0916ZM83.4939 49.0156C83.4939 48.5234 83.6658 48.1172 84.0095 47.7969C84.3533 47.4766 84.8142 47.3164 85.3923 47.3164C85.9627 47.3164 86.4197 47.4766 86.7634 47.7969C87.115 48.1172 87.2908 48.5234 87.2908 49.0156C87.2908 49.5078 87.115 49.9141 86.7634 50.2344C86.4197 50.5547 85.9627 50.7148 85.3923 50.7148C84.8142 50.7148 84.3533 50.5547 84.0095 50.2344C83.6658 49.9141 83.4939 49.5078 83.4939 49.0156ZM93.6653 55.0273V65H90.2903V52.3203H93.4544L93.6653 55.0273ZM93.1731 58.2148H92.2591C92.2591 57.2773 92.3802 56.4336 92.6223 55.6836C92.8645 54.9258 93.2044 54.2812 93.6419 53.75C94.0794 53.2109 94.5989 52.8008 95.2005 52.5195C95.8098 52.2305 96.4895 52.0859 97.2395 52.0859C97.8333 52.0859 98.3763 52.1719 98.8684 52.3438C99.3606 52.5156 99.7825 52.7891 100.134 53.1641C100.493 53.5391 100.767 54.0352 100.954 54.6523C101.15 55.2695 101.247 56.0234 101.247 56.9141V65H97.8489V56.9023C97.8489 56.3398 97.7708 55.9023 97.6145 55.5898C97.4583 55.2773 97.2278 55.0586 96.9231 54.9336C96.6263 54.8008 96.2591 54.7344 95.8216 54.7344C95.3684 54.7344 94.9739 54.8242 94.638 55.0039C94.3098 55.1836 94.0364 55.4336 93.8177 55.7539C93.6067 56.0664 93.4466 56.4336 93.3372 56.8555C93.2278 57.2773 93.1731 57.7305 93.1731 58.2148ZM112.321 52.3203H115.38V64.5781C115.38 65.7344 115.122 66.7148 114.606 67.5195C114.098 68.332 113.387 68.9453 112.473 69.3594C111.559 69.7812 110.497 69.9922 109.286 69.9922C108.755 69.9922 108.192 69.9219 107.598 69.7812C107.012 69.6406 106.45 69.4219 105.911 69.125C105.38 68.8281 104.934 68.4531 104.575 68L106.063 66.0078C106.454 66.4609 106.907 66.8125 107.423 67.0625C107.938 67.3203 108.509 67.4492 109.134 67.4492C109.743 67.4492 110.259 67.3359 110.68 67.1094C111.102 66.8906 111.427 66.5664 111.653 66.1367C111.88 65.7148 111.993 65.2031 111.993 64.6016V55.25L112.321 52.3203ZM103.79 58.8125V58.5664C103.79 57.5977 103.907 56.7188 104.141 55.9297C104.384 55.1328 104.723 54.4492 105.161 53.8789C105.606 53.3086 106.145 52.8672 106.778 52.5547C107.411 52.2422 108.126 52.0859 108.923 52.0859C109.766 52.0859 110.473 52.2422 111.044 52.5547C111.614 52.8672 112.083 53.3125 112.45 53.8906C112.817 54.4609 113.102 55.1367 113.305 55.918C113.516 56.6914 113.68 57.5391 113.798 58.4609V59C113.68 59.8828 113.505 60.7031 113.27 61.4609C113.036 62.2188 112.727 62.8828 112.345 63.4531C111.962 64.0156 111.485 64.4531 110.915 64.7656C110.352 65.0781 109.68 65.2344 108.899 65.2344C108.118 65.2344 107.411 65.0742 106.778 64.7539C106.153 64.4336 105.618 63.9844 105.173 63.4062C104.727 62.8281 104.384 62.1484 104.141 61.3672C103.907 60.5859 103.79 59.7344 103.79 58.8125ZM107.165 58.5664V58.8125C107.165 59.3359 107.216 59.8242 107.317 60.2773C107.419 60.7305 107.575 61.1328 107.786 61.4844C108.005 61.8281 108.274 62.0977 108.595 62.293C108.923 62.4805 109.309 62.5742 109.755 62.5742C110.372 62.5742 110.876 62.4453 111.266 62.1875C111.657 61.9219 111.95 61.5586 112.145 61.0977C112.341 60.6367 112.454 60.1055 112.485 59.5039V57.9688C112.47 57.4766 112.403 57.0352 112.286 56.6445C112.169 56.2461 112.005 55.9062 111.794 55.625C111.583 55.3438 111.309 55.125 110.973 54.9688C110.637 54.8125 110.239 54.7344 109.778 54.7344C109.333 54.7344 108.946 54.8359 108.618 55.0391C108.298 55.2344 108.028 55.5039 107.809 55.8477C107.598 56.1914 107.438 56.5977 107.329 57.0664C107.22 57.5273 107.165 58.0273 107.165 58.5664ZM125.34 61.4961C125.34 61.2539 125.27 61.0352 125.129 60.8398C124.989 60.6445 124.727 60.4648 124.344 60.3008C123.969 60.1289 123.426 59.9727 122.715 59.832C122.075 59.6914 121.477 59.5156 120.922 59.3047C120.375 59.0859 119.899 58.8242 119.493 58.5195C119.094 58.2148 118.782 57.8555 118.555 57.4414C118.328 57.0195 118.215 56.5391 118.215 56C118.215 55.4688 118.328 54.9688 118.555 54.5C118.789 54.0312 119.121 53.6172 119.551 53.2578C119.989 52.8906 120.52 52.6055 121.145 52.4023C121.778 52.1914 122.489 52.0859 123.278 52.0859C124.379 52.0859 125.325 52.2617 126.114 52.6133C126.91 52.9648 127.52 53.4492 127.942 54.0664C128.371 54.6758 128.586 55.3711 128.586 56.1523H125.211C125.211 55.8242 125.141 55.5312 125 55.2734C124.868 55.0078 124.657 54.8008 124.368 54.6523C124.086 54.4961 123.719 54.418 123.266 54.418C122.891 54.418 122.567 54.4844 122.293 54.6172C122.02 54.7422 121.809 54.9141 121.66 55.1328C121.52 55.3438 121.45 55.5781 121.45 55.8359C121.45 56.0312 121.489 56.207 121.567 56.3633C121.653 56.5117 121.789 56.6484 121.977 56.7734C122.164 56.8984 122.407 57.0156 122.703 57.125C123.008 57.2266 123.383 57.3203 123.828 57.4062C124.743 57.5938 125.559 57.8398 126.278 58.1445C126.996 58.4414 127.567 58.8477 127.989 59.3633C128.41 59.8711 128.621 60.5391 128.621 61.3672C128.621 61.9297 128.496 62.4453 128.246 62.9141C127.996 63.3828 127.637 63.793 127.168 64.1445C126.7 64.4883 126.137 64.7578 125.481 64.9531C124.832 65.1406 124.102 65.2344 123.289 65.2344C122.11 65.2344 121.11 65.0234 120.289 64.6016C119.477 64.1797 118.86 63.6445 118.438 62.9961C118.024 62.3398 117.817 61.668 117.817 60.9805H121.016C121.032 61.4414 121.149 61.8125 121.368 62.0938C121.594 62.375 121.879 62.5781 122.223 62.7031C122.575 62.8281 122.953 62.8906 123.36 62.8906C123.797 62.8906 124.16 62.832 124.45 62.7148C124.739 62.5898 124.957 62.4258 125.106 62.2227C125.262 62.0117 125.34 61.7695 125.34 61.4961Z" fill="black"/>
<defs>
<filter id="filter0_d_118_176" x="0.00012207" y="1.10095" width="169.691" height="93.7491" filterUnits="userSpaceOnUse" color-interpolation-filters="sRGB">
<feFlood flood-opacity="0" result="BackgroundImageFix"/>
<feColorMatrix in="SourceAlpha" type="matrix" values="0 0 0 0 0 0 0 0 0 0 0 0 0 0 0 0 0 0 127 0" result="hardAlpha"/>
<feOffset dy="4"/>
<feGaussianBlur stdDeviation="2"/>
<feComposite in2="hardAlpha" operator="out"/>
<feColorMatrix type="matrix" values="0 0 0 0 0 0 0 0 0 0 0 0 0 0 0 0 0 0 0.25 0"/>
<feBlend mode="normal" in2="BackgroundImageFix" result="effect1_dropShadow_118_176"/>
<feBlend mode="normal" in="SourceGraphic" in2="effect1_dropShadow_118_176" result="shape"/>
</filter>
</defs>
</svg>
