<svg width="81" height="81" viewBox="0 0 81 81" fill="none" xmlns="http://www.w3.org/2000/svg">
<path fill-rule="evenodd" clip-rule="evenodd" d="M14.3438 27C14.3438 17.6802 21.899 10.125 31.2188 10.125H57.375C66.6948 10.125 74.25 17.6802 74.25 27V54C74.25 63.3198 66.6948 70.875 57.375 70.875H10.125C8.88471 70.875 7.74434 70.1947 7.15514 69.1033C6.56594 68.0119 6.62285 66.6852 7.30334 65.6483L12.6837 57.4496C13.7668 55.7993 14.3438 53.8684 14.3438 51.8944V27ZM31.2188 16.875C25.6269 16.875 21.0938 21.4081 21.0938 27V51.8944C21.0938 55.1843 20.1321 58.4025 18.3271 61.153L16.3767 64.125H57.375C62.9669 64.125 67.5 59.5919 67.5 54V27C67.5 21.4081 62.9669 16.875 57.375 16.875H31.2188Z" fill="black"/>
<path d="M47.25 40.5C47.25 42.364 45.739 43.875 43.875 43.875C42.011 43.875 40.5 42.364 40.5 40.5C40.5 38.636 42.011 37.125 43.875 37.125C45.739 37.125 47.25 38.636 47.25 40.5Z" fill="black"/>
<path d="M60.75 40.5C60.75 42.364 59.239 43.875 57.375 43.875C55.511 43.875 54 42.364 54 40.5C54 38.636 55.511 37.125 57.375 37.125C59.239 37.125 60.75 38.636 60.75 40.5Z" fill="black"/>
<path d="M33.75 40.5C33.75 42.364 32.239 43.875 30.375 43.875C28.511 43.875 27 42.364 27 40.5C27 38.636 28.511 37.125 30.375 37.125C32.239 37.125 33.75 38.636 33.75 40.5Z" fill="black"/>
</svg>
