<svg width="549" height="304" viewBox="0 0 549 304" fill="none" xmlns="http://www.w3.org/2000/svg">
<path d="M190.546 288.381C190.546 279.013 184.671 271.414 177.412 271.414C177.327 271.414 177.242 271.425 177.147 271.436C177.507 268.732 177.697 265.962 177.697 263.125C177.697 236.066 160.707 214.125 139.756 214.125C123.022 214.125 108.828 228.133 103.787 247.548C101.351 246.424 98.7267 245.779 95.9788 245.779C83.4046 245.779 73.2183 258.607 73.2183 274.429C73.2183 281.294 75.1418 287.591 78.3351 292.52H190.119C190.375 291.196 190.527 289.805 190.527 288.37L190.546 288.381Z" fill="#82C241"/>
<path d="M406.06 258.941C417.95 258.941 427.589 247.748 427.589 233.94C427.589 220.133 417.95 208.94 406.06 208.94C394.17 208.94 384.531 220.133 384.531 233.94C384.531 247.748 394.17 258.941 406.06 258.941Z" fill="#82C241"/>
<path d="M156.557 143.963H138.733V158.416H156.557V143.963Z" fill="#B8372B"/>
<path d="M200.836 71.0411L138.733 143.962V158.427L200.836 85.5052L262.93 158.427V143.962L200.836 71.0411Z" fill="#EF5548"/>
<path d="M399.38 143.962H262.93L200.836 71.0411H337.286L399.38 143.962Z" fill="#D84030"/>
<path d="M392.33 143.963H262.931V268.665H392.33V143.963Z" fill="#E59C24"/>
<path d="M392.33 268.665H262.931V292.531H392.33V268.665Z" fill="#DB542A"/>
<path d="M145.622 292.52H262.931V268.654H145.622V292.52Z" fill="#F6863A"/>
<path d="M399.408 143.885H262.92V158.427H399.408V143.885Z" fill="#B8372B"/>
<path d="M392.358 158.349H262.92V172.145H392.358V158.349Z" fill="#DB542A"/>
<path d="M145.678 164.535V268.665H262.93V172.668L200.836 99.9693L145.678 164.535Z" fill="#FCB017"/>
<path d="M145.678 150.26V164.724L200.836 99.9693L262.93 172.891V158.427L200.836 85.5052L145.678 150.26Z" fill="#F6863A"/>
<path d="M329.649 60.0594H304.491V96.7982H329.649V60.0594Z" fill="#B8372B"/>
<path d="M304.491 96.8206V60.1151H293.129V83.4802L304.491 96.8206Z" fill="#EF5548"/>
<path d="M332.956 51.0138H304.491V60.0594H332.956V51.0138Z" fill="#B8372B"/>
<path d="M304.491 51.025H289.017V60.0707H304.491V51.025Z" fill="#EF5548"/>
<path d="M329.649 60.0594H304.491V66.6016H329.649V60.0594Z" fill="#A92D29"/>
<path d="M304.491 60.0706H293.129V66.6128H304.491V60.0706Z" fill="#D84F4E"/>
<path d="M303.846 31.0645C311.152 31.0645 317.074 24.1105 317.074 15.5322C317.074 6.95402 311.152 0 303.846 0C296.541 0 290.618 6.95402 290.618 15.5322C290.618 24.1105 296.541 31.0645 303.846 31.0645Z" fill="#E2F3F4"/>
<path d="M311.749 47.3533C314.868 47.3533 317.397 44.3844 317.397 40.7221C317.397 37.0597 314.868 34.0908 311.749 34.0908C308.63 34.0908 306.102 37.0597 306.102 40.7221C306.102 44.3844 308.63 47.3533 311.749 47.3533Z" fill="#E2F3F4"/>
<path d="M323.205 31.0534C325.162 31.0534 326.749 29.1903 326.749 26.8922C326.749 24.594 325.162 22.731 323.205 22.731C321.248 22.731 319.661 24.594 319.661 26.8922C319.661 29.1903 321.248 31.0534 323.205 31.0534Z" fill="#E2F3F4"/>
<path d="M312.819 193.052H280.886V230.547H312.819V193.052Z" fill="white"/>
<path d="M318.268 235.098H280.886V241.351H318.268V235.098Z" fill="#DB542A"/>
<path d="M312.81 230.547H318.296V193.052H312.81V230.547Z" fill="#FCB017"/>
<path d="M289.841 230.547H280.886V235.098H289.841V230.547Z" fill="#D84030"/>
<path d="M289.775 235.098H327.896V230.547H289.775V235.098Z" fill="#B8372B"/>
<path d="M309.91 200.428L287.168 227.142H293.147L309.91 207.449V200.428Z" fill="#65CBE0"/>
<path d="M283.785 196.456V222.948L306.347 196.456H283.785Z" fill="#65CBE0"/>
<path d="M309.91 207.449L293.148 227.142H309.91V227.131V207.449Z" fill="#D0E8F6"/>
<path d="M309.91 196.456H306.347L283.785 222.948V227.142H287.168L309.91 200.428V196.456Z" fill="#D0E8F6"/>
<path d="M372.677 193.052H340.744V230.202H372.677V193.052Z" fill="white"/>
<path d="M378.126 234.708H340.744V240.894H378.126V234.708Z" fill="#DB542A"/>
<path d="M372.667 230.202H378.154V193.051H372.667V230.202Z" fill="#FCB017"/>
<path d="M349.699 230.202H340.744V234.708H349.699V230.202Z" fill="#D84030"/>
<path d="M349.632 234.697H387.752V230.191H349.632V234.697Z" fill="#B8372B"/>
<path d="M369.768 200.361L347.027 226.82H353.006L369.768 207.315V200.361Z" fill="#65CBE0"/>
<path d="M343.644 196.434V222.67L366.205 196.434H343.644Z" fill="#65CBE0"/>
<path d="M369.768 207.315L353.006 226.82H369.768V207.315Z" fill="#D0E8F6"/>
<path d="M369.768 196.434H366.205L343.644 222.67V226.82H347.026L369.768 200.361V196.434Z" fill="#D0E8F6"/>
<path d="M230.344 182.949H170.344V269.311H230.344V182.949Z" fill="#DB542A"/>
<path d="M230.334 182.949H178.36V269.311H230.334V182.949Z" fill="#902A1D"/>
<path d="M230.334 182.949H178.36V192.796H230.334V182.949Z" fill="#661C18"/>
<path d="M193.322 145.631C193.322 137.431 197.908 130.477 204.228 128.119C202.731 127.562 201.139 127.251 199.49 127.251C190.849 127.251 183.846 135.473 183.846 145.62C183.846 155.767 190.849 163.99 199.49 163.99C201.139 163.99 202.731 163.689 204.228 163.122C197.908 160.763 193.322 153.82 193.322 145.609V145.631Z" fill="#DB542A"/>
<path d="M196.022 145.631C196.022 137.498 201.471 130.867 208.322 130.466C207.071 129.465 205.697 128.664 204.228 128.119C197.908 130.478 193.322 137.42 193.322 145.631C193.322 153.843 197.908 160.785 204.228 163.144C205.697 162.599 207.071 161.798 208.322 160.797C201.471 160.396 196.022 153.776 196.022 145.631Z" fill="white"/>
<path d="M196.023 145.631C196.023 153.765 201.471 160.396 208.322 160.797C212.435 157.492 215.135 151.929 215.135 145.631C215.135 139.334 212.435 133.782 208.322 130.466C201.471 130.867 196.023 137.487 196.023 145.631Z" fill="#65CBE0"/>
<path d="M230.457 268.665H211.752V281.049H230.457V268.665Z" fill="#DB542A"/>
<path d="M230.467 281.049H187.561V292.409H230.467V281.049Z" fill="#DB542A"/>
<path d="M131.598 292.409H187.561V280.804H131.598V292.409Z" fill="#FCB017"/>
<path d="M155.912 281.027H211.875V268.599H155.912V281.027Z" fill="#FCB017"/>
<path d="M170.315 157.848H157.561C156.18 157.848 155.06 159.163 155.06 160.785V161.842C155.06 163.465 156.18 164.78 157.561 164.78H170.315C171.697 164.78 172.817 163.465 172.817 161.842V160.785C172.817 159.163 171.697 157.848 170.315 157.848Z" fill="#F6863A"/>
<path d="M236.446 148.758H223.692C222.31 148.758 221.19 150.073 221.19 151.695V152.752C221.19 154.374 222.31 155.689 223.692 155.689H236.446C237.827 155.689 238.947 154.374 238.947 152.752V151.695C238.947 150.073 237.827 148.758 236.446 148.758Z" fill="#F6863A"/>
<path d="M257.084 187.399H244.33C242.948 187.399 241.828 188.714 241.828 190.337V191.394C241.828 193.016 242.948 194.331 244.33 194.331H257.084C258.465 194.331 259.585 193.016 259.585 191.394V190.337C259.585 188.714 258.465 187.399 257.084 187.399Z" fill="#F6863A"/>
<path d="M250.309 225.273H237.554C236.173 225.273 235.053 226.588 235.053 228.21V229.267C235.053 230.89 236.173 232.205 237.554 232.205H250.309C251.69 232.205 252.81 230.89 252.81 229.267V228.21C252.81 226.588 251.69 225.273 250.309 225.273Z" fill="#F6863A"/>
<path d="M164.185 245.345H151.43C150.049 245.345 148.929 246.66 148.929 248.282V249.339C148.929 250.961 150.049 252.277 151.43 252.277H164.185C165.566 252.277 166.686 250.961 166.686 249.339V248.282C166.686 246.66 165.566 245.345 164.185 245.345Z" fill="#F6863A"/>
<path d="M255.463 85.9836H240.293C238.336 85.9836 236.749 87.8467 236.749 90.1449V90.156C236.749 92.4542 238.336 94.3172 240.293 94.3172H255.463C257.421 94.3172 259.007 92.4542 259.007 90.156V90.1449C259.007 87.8467 257.421 85.9836 255.463 85.9836Z" fill="#B8372B"/>
<path d="M288.041 110.217H272.871C270.913 110.217 269.327 112.08 269.327 114.378V114.389C269.327 116.687 270.913 118.55 272.871 118.55H288.041C289.998 118.55 291.585 116.687 291.585 114.389V114.378C291.585 112.08 289.998 110.217 288.041 110.217Z" fill="#B8372B"/>
<path d="M333.846 125.371H318.675C316.718 125.371 315.131 127.234 315.131 129.532V129.543C315.131 131.841 316.718 133.704 318.675 133.704H333.846C335.803 133.704 337.39 131.841 337.39 129.543V129.532C337.39 127.234 335.803 125.371 333.846 125.371Z" fill="#B8372B"/>
<path d="M354.815 106.434H339.644C337.687 106.434 336.101 108.297 336.101 110.595V110.606C336.101 112.904 337.687 114.767 339.644 114.767H354.815C356.772 114.767 358.359 112.904 358.359 110.606V110.595C358.359 108.297 356.772 106.434 354.815 106.434Z" fill="#B8372B"/>
<path d="M459.976 289.405C459.976 282.34 455.106 276.621 449.089 276.621C449.013 276.621 448.947 276.632 448.871 276.632C449.165 274.596 449.326 272.504 449.326 270.368C449.326 249.973 435.245 233.44 417.876 233.44C404.004 233.44 392.235 243.987 388.056 258.63C386.038 257.784 383.858 257.294 381.584 257.294C371.161 257.294 362.718 266.963 362.718 278.879C362.718 284.053 364.31 288.793 366.963 292.52H459.635C459.853 291.519 459.976 290.473 459.976 289.394V289.405Z" fill="#A2CD3A"/>
<path d="M543.675 291.385H5.32531C2.38422 291.385 0 294.182 0 297.633C0 301.083 2.38422 303.88 5.32531 303.88H543.675C546.616 303.88 549 301.083 549 297.633C549 294.182 546.616 291.385 543.675 291.385Z" fill="#82C241"/>
<path d="M417.147 264.126C421.223 264.126 424.528 260.245 424.528 255.459C424.528 250.672 421.223 246.791 417.147 246.791C413.07 246.791 409.765 250.672 409.765 255.459C409.765 260.245 413.07 264.126 417.147 264.126Z" fill="#CDDF6E"/>
<path d="M387.516 282.874C389.855 282.874 391.752 280.647 391.752 277.9C391.752 275.153 389.855 272.927 387.516 272.927C385.177 272.927 383.28 275.153 383.28 277.9C383.28 280.647 385.177 282.874 387.516 282.874Z" fill="#CDDF6E"/>
<path d="M412.674 223.493C415.013 223.493 416.91 221.266 416.91 218.519C416.91 215.773 415.013 213.546 412.674 213.546C410.335 213.546 408.438 215.773 408.438 218.519C408.438 221.266 410.335 223.493 412.674 223.493Z" fill="#CDDF6E"/>
<path d="M94.4155 286C100.831 286 106.033 279.893 106.033 272.359C106.033 264.826 100.831 258.719 94.4155 258.719C87.9995 258.719 82.7983 264.826 82.7983 272.359C82.7983 279.893 87.9995 286 94.4155 286Z" fill="#CDDF6E"/>
<path d="M132.394 233.729C135.335 233.729 137.719 230.929 137.719 227.476C137.719 224.023 135.335 221.223 132.394 221.223C129.453 221.223 127.069 224.023 127.069 227.476C127.069 230.929 129.453 233.729 132.394 233.729Z" fill="#CDDF6E"/>
<path d="M126.291 266.251C128.662 266.251 130.584 263.994 130.584 261.211C130.584 258.427 128.662 256.171 126.291 256.171C123.921 256.171 121.999 258.427 121.999 261.211C121.999 263.994 123.921 266.251 126.291 266.251Z" fill="#CDDF6E"/>
</svg>
