<svg width="602" height="602" viewBox="0 0 602 602" fill="none" xmlns="http://www.w3.org/2000/svg">
<path d="M299.183 271.796H488.799V450.693H299.183V271.796Z" fill="#E8EAF6"/>
<path d="M488.584 450.482C488.436 443.098 488.303 435.715 488.2 428.331L487.858 405.97L487.359 361.245L487.138 338.883L486.969 316.521L486.719 271.797L488.798 273.876L441.394 274.023L417.692 274.035L393.99 274.011L346.586 273.874L322.885 273.702L311.034 273.615L299.183 273.483L300.868 271.798L300.254 450.695L299.183 449.624L488.584 450.482ZM488.799 450.904L299.183 451.765C299.043 451.766 298.904 451.739 298.774 451.686C298.645 451.633 298.527 451.555 298.427 451.456C298.327 451.357 298.248 451.24 298.194 451.111C298.14 450.982 298.112 450.843 298.111 450.703V450.693L297.498 271.796C297.496 271.353 297.67 270.927 297.981 270.611C298.292 270.296 298.715 270.116 299.158 270.111L299.183 270.11L311.034 269.978L322.885 269.892L346.587 269.719L393.991 269.582L417.693 269.559L441.395 269.57L488.799 269.717H488.817C489.088 269.718 489.357 269.772 489.608 269.877C489.858 269.981 490.086 270.134 490.277 270.327C490.468 270.52 490.62 270.748 490.723 270.999C490.826 271.25 490.879 271.519 490.878 271.791V271.796L490.628 316.52L490.458 338.882L490.238 361.244L489.739 405.968L489.397 428.33C489.291 435.785 489.161 443.239 489.009 450.692V450.696C489.008 450.751 488.986 450.804 488.946 450.843C488.907 450.882 488.854 450.904 488.799 450.904Z" fill="#263238"/>
<path d="M400.417 437.628C383.112 437.628 363.977 435.867 353.259 422.788C345.866 413.765 343.146 399.983 345.136 381.725C348.368 386.79 353.335 389.652 358.073 389.652C363.797 389.652 369.571 385.247 369.571 375.396C369.571 371.029 368 366.269 366.333 361.227C362.331 349.091 357.495 334.442 372.079 317.525C370.737 323.594 371.381 329.471 374.085 334.601C377.377 340.859 383.288 344.746 389.502 344.746C396.132 344.746 401.572 340.571 404.92 333.216C409.575 342.511 418.811 349.593 426.579 355.557C430.428 358.507 434.064 361.293 436.507 363.866C448.697 376.71 452.022 394.569 445.186 410.483C437.88 427.482 421.143 437.628 400.417 437.628ZM394.626 319.553C392.806 319.553 391.148 318.866 389.687 317.525C383.112 311.447 385.418 308.323 390.815 302.391C393.34 299.611 396.092 296.58 396.938 293.004C403.938 297.027 407.198 302.61 405.977 308.71C404.799 314.587 399.603 319.553 394.626 319.553Z" fill="#FFD54F"/>
<path d="M400.111 437.628C379.35 437.628 369.734 430.453 365.323 424.44C363.448 421.882 362.297 419.255 361.682 416.775C363.017 417.979 364.631 418.754 366.626 418.754C368.349 418.754 370.105 418.159 372.002 416.933C373.49 415.963 374.379 414.741 374.646 413.296C375.098 410.849 373.643 408.848 372.23 406.913C371.085 405.337 369.897 403.713 370.093 402.328C370.763 397.487 373.866 395.677 377.366 394.09C377.802 399.029 378.969 404.835 383.756 407.234C385.479 408.096 387.255 408.532 389.027 408.532C393.263 408.532 396.949 405.991 399.14 401.559C401.998 395.769 399.778 389.227 397.63 382.903C394.539 373.81 393.029 367.976 400.068 363.876C400.394 374.496 407.089 379.217 412.606 383.104C417.928 386.861 422.136 389.826 422.136 396.99C422.136 397.912 420.365 400 419.187 401.379C416.695 404.307 412.531 409.213 416.756 413.439C417.337 414.024 418.028 414.489 418.79 414.806C419.551 415.123 420.368 415.287 421.193 415.287C423.658 415.287 426.143 413.891 427.844 411.563C428.245 411.011 428.594 410.423 428.886 409.807C431.503 414.588 431.912 419.014 430.085 423.027C425.996 432.045 411.342 437.628 400.111 437.628Z" fill="#FFB74D"/>
<path d="M395.587 451.673C388.853 451.673 383.375 446.195 383.375 439.461C383.375 432.733 388.853 427.259 395.587 427.259C402.315 427.259 407.793 432.733 407.793 439.461C407.793 446.195 402.315 451.673 395.587 451.673Z" fill="#37474F"/>
<path d="M377.762 451.673C371.029 451.673 365.551 446.195 365.551 439.461C365.551 432.733 371.029 427.259 377.762 427.259C384.491 427.259 389.969 432.733 389.969 439.461C389.969 446.195 384.491 451.673 377.762 451.673ZM414.705 451.673C407.972 451.673 402.494 446.195 402.494 439.461C402.494 432.733 407.972 427.259 414.705 427.259C421.434 427.259 426.911 432.733 426.911 439.461C426.911 446.195 421.434 451.673 414.705 451.673Z" fill="#37474F"/>
<path d="M526.253 185.692H552.871V450.693H526.253V185.692Z" fill="#E8EAF6"/>
<path d="M553.082 185.692L553.847 318.193L554.441 450.694C554.443 451.108 554.28 451.507 553.988 451.801C553.696 452.096 553.299 452.262 552.885 452.264H552.871L526.253 452.379C525.812 452.381 525.387 452.209 525.071 451.899C524.756 451.59 524.575 451.169 524.568 450.727V450.693C524.487 445.172 524.41 439.651 524.369 434.13L524.217 417.568C524.151 412.047 524.163 406.526 524.133 401.005L524.072 384.443L524.011 367.88L524.019 351.318L524.04 334.755L524.099 318.193L524.168 301.63L524.276 285.067L524.393 268.505L524.551 251.942L524.738 235.38L524.966 218.817L525.194 202.254C525.257 196.733 525.377 191.212 525.482 185.691L525.483 185.662C525.485 185.562 525.506 185.464 525.546 185.373C525.585 185.282 525.643 185.2 525.714 185.131C525.786 185.062 525.87 185.008 525.963 184.972C526.055 184.936 526.154 184.918 526.253 184.92L539.562 185.178C543.998 185.253 548.434 185.378 552.87 185.48H552.874C552.929 185.482 552.981 185.505 553.02 185.545C553.059 185.584 553.081 185.637 553.082 185.692ZM552.659 185.908C548.293 186.009 543.928 186.132 539.562 186.206L526.254 186.463L527.025 185.692C527.13 191.213 527.25 196.734 527.313 202.255L527.541 218.818L527.769 235.381L527.956 251.943L528.114 268.506L528.231 285.068L528.339 301.631L528.408 318.194L528.467 334.757L528.487 351.319L528.496 367.882L528.435 384.444L528.374 401.007C528.344 406.528 528.356 412.049 528.29 417.569L528.137 434.132C528.097 439.653 528.02 445.174 527.938 450.695L526.253 449.009L552.87 449.124L551.3 450.694L551.894 318.193L552.659 185.908Z" fill="#263238"/>
<path d="M553.081 185.692L553.901 318.193L554.521 450.694C554.522 450.91 554.48 451.123 554.399 451.323C554.317 451.523 554.197 451.704 554.045 451.858C553.893 452.011 553.713 452.133 553.514 452.216C553.315 452.3 553.101 452.343 552.886 452.344H552.871L526.253 452.491C526.019 452.492 525.786 452.447 525.569 452.359C525.351 452.27 525.153 452.14 524.987 451.975C524.82 451.81 524.687 451.613 524.596 451.397C524.505 451.181 524.458 450.948 524.456 450.714V450.694L524.118 384.444L524.063 367.881L524.093 351.319L524.131 334.756L524.213 318.193L524.467 285.068L524.629 268.505L524.855 251.943L525.089 235.381C525.176 229.86 525.226 224.339 525.342 218.818L525.669 202.255C525.769 196.734 525.902 191.213 526.043 185.692C526.043 185.636 526.065 185.583 526.105 185.543C526.144 185.504 526.198 185.482 526.254 185.482C526.31 185.482 526.363 185.504 526.403 185.543C526.442 185.583 526.465 185.636 526.465 185.692C526.606 191.213 526.74 196.734 526.838 202.255L527.167 218.818C527.283 224.339 527.333 229.86 527.419 235.381L527.653 251.943L527.879 268.505L528.041 285.068L528.295 318.193L528.377 334.756L528.415 351.319L528.445 367.881L528.39 384.444L528.051 450.694L526.254 448.897L552.871 449.044L551.221 450.694L551.841 318.193L552.661 185.692C552.661 185.665 552.666 185.637 552.677 185.612C552.688 185.586 552.704 185.563 552.723 185.544C552.743 185.524 552.766 185.509 552.792 185.498C552.817 185.488 552.845 185.483 552.873 185.483C552.987 185.483 553.08 185.577 553.081 185.692Z" fill="#263238"/>
<path d="M250.024 151.331L393.991 150.578L537.958 149.991C538.368 149.989 538.762 150.151 539.052 150.439C539.343 150.728 539.508 151.12 539.509 151.53V151.543L539.644 185.693C539.645 186.135 539.472 186.56 539.162 186.876C538.852 187.191 538.43 187.372 537.988 187.378H537.958C531.959 187.458 525.961 187.534 519.962 187.574L501.966 187.725C495.967 187.789 489.968 187.784 483.969 187.811L465.973 187.871L447.978 187.931L429.982 187.928L393.99 187.855L357.998 187.688L340.002 187.581L322.006 187.426L304.01 187.257L286.014 187.032L268.018 186.808C262.019 186.735 256.02 186.665 250.021 186.548L249.99 186.547C249.879 186.545 249.771 186.522 249.67 186.478C249.569 186.434 249.478 186.37 249.401 186.291C249.325 186.212 249.265 186.118 249.224 186.016C249.184 185.913 249.165 185.804 249.167 185.694L249.466 168.618L249.624 160.081L249.811 151.543V151.54C249.813 151.484 249.836 151.432 249.876 151.393C249.916 151.354 249.968 151.332 250.024 151.331ZM250.239 151.754L250.422 160.08L250.58 168.617L250.879 185.692L250.024 184.838C256.023 184.721 262.022 184.651 268.021 184.578L286.017 184.353L304.013 184.129L322.009 183.96L340.005 183.804L358.001 183.698L393.993 183.531L429.985 183.458L447.981 183.455L465.976 183.515L483.973 183.575C489.971 183.602 495.97 183.597 501.969 183.661L519.965 183.812C525.963 183.851 531.962 183.928 537.961 184.008L536.275 185.694L536.41 151.543L537.961 153.095L393.994 152.507L250.239 151.754Z" fill="black"/>
<path d="M537.958 151.542H561.064V185.692H537.958V151.542Z" fill="#E8EAF6"/>
<path d="M538.193 185.474L549.511 185.121L561.064 184.795L560.166 185.692C559.993 180 559.878 174.309 559.741 168.617L559.542 160.08L559.378 151.542L561.064 153.228C560.101 153.296 559.138 153.372 558.176 153.417C557.213 153.476 556.25 153.517 555.287 153.554C553.362 153.645 551.437 153.674 549.511 153.728L546.623 153.763C545.66 153.774 544.697 153.791 543.735 153.782C541.809 153.769 539.884 153.787 537.958 153.749L540.166 151.542L540.088 155.811C540.072 157.233 540.007 158.656 539.964 160.08C539.912 161.503 539.88 162.926 539.812 164.348L539.604 168.617C539.536 170.04 539.429 171.463 539.344 172.886C539.263 174.309 539.14 175.732 539.031 177.155C538.93 178.577 538.78 180 538.653 181.424C538.517 182.776 538.364 184.126 538.193 185.474ZM537.747 185.692C537.567 184.272 537.405 182.849 537.263 181.424C537.136 180 536.986 178.577 536.885 177.155C536.776 175.732 536.653 174.308 536.572 172.886C536.486 171.463 536.38 170.04 536.312 168.617L536.104 164.348C536.035 162.926 536.004 161.503 535.952 160.08C535.909 158.656 535.844 157.233 535.828 155.811L535.75 151.542C535.745 151.257 535.796 150.975 535.9 150.71C536.004 150.445 536.16 150.203 536.357 149.998C536.555 149.793 536.791 149.629 537.052 149.516C537.313 149.402 537.593 149.341 537.878 149.336L537.958 149.335C539.884 149.297 541.809 149.314 543.735 149.301C544.697 149.292 545.66 149.31 546.623 149.321L549.511 149.356C551.437 149.41 553.362 149.438 555.287 149.53C556.25 149.567 557.213 149.608 558.176 149.666C559.138 149.713 560.101 149.788 561.064 149.856L561.219 149.867C561.64 149.898 562.033 150.089 562.318 150.4C562.602 150.712 562.757 151.12 562.75 151.542L562.586 160.08L562.387 168.617C562.25 174.309 562.136 180 561.962 185.692L561.96 185.745C561.956 185.859 561.931 185.972 561.884 186.076C561.837 186.18 561.77 186.274 561.687 186.353C561.604 186.431 561.506 186.493 561.399 186.533C561.292 186.574 561.178 186.593 561.064 186.59L549.511 186.264L537.958 185.903C537.907 185.901 537.858 185.882 537.819 185.847C537.781 185.813 537.757 185.766 537.75 185.715L537.747 185.692Z" fill="#263238"/>
<path d="M537.958 185.482L543.734 185.215L549.511 184.983C553.362 184.834 557.213 184.657 561.064 184.535L559.906 185.692L559.62 177.155L559.379 168.617C559.332 167.194 559.294 165.771 559.229 164.348L559.044 160.08L558.958 157.946C558.938 157.234 558.904 156.522 558.897 155.811C558.87 154.389 558.864 152.966 558.881 151.543L561.063 153.726C559.137 153.691 557.211 153.625 555.287 153.529C553.36 153.433 551.434 153.31 549.51 153.16C547.582 153.006 545.656 152.817 543.734 152.592C542.771 152.491 541.808 152.346 540.846 152.224C539.883 152.078 538.92 151.937 537.957 151.754C537.909 151.744 537.865 151.718 537.834 151.679C537.802 151.641 537.785 151.593 537.785 151.543C537.785 151.494 537.802 151.446 537.834 151.407C537.865 151.369 537.909 151.342 537.957 151.333C538.92 151.15 539.883 151.008 540.846 150.863C541.808 150.741 542.771 150.596 543.734 150.495C545.659 150.271 547.585 150.08 549.51 149.927C551.436 149.776 553.361 149.653 555.287 149.557C557.212 149.459 559.138 149.397 561.063 149.36C561.345 149.355 561.624 149.405 561.886 149.508C562.148 149.61 562.387 149.763 562.589 149.958C562.792 150.153 562.954 150.386 563.067 150.644C563.18 150.902 563.24 151.179 563.246 151.46V151.482L563.246 151.544C563.259 152.966 563.262 154.39 563.229 155.813C563.223 156.524 563.188 157.235 563.169 157.947L563.083 160.081L562.898 164.35C562.833 165.773 562.795 167.196 562.748 168.618L562.506 177.156L562.22 185.694L562.218 185.769C562.213 185.916 562.18 186.06 562.119 186.194C562.059 186.328 561.972 186.449 561.865 186.549C561.758 186.65 561.632 186.728 561.494 186.78C561.356 186.832 561.21 186.856 561.063 186.851C557.212 186.728 553.361 186.551 549.51 186.403L543.733 186.171L537.957 185.904C537.901 185.904 537.847 185.882 537.808 185.842C537.768 185.802 537.746 185.748 537.746 185.692C537.746 185.636 537.769 185.583 537.808 185.543C537.848 185.504 537.902 185.481 537.958 185.482ZM261.939 185.692L262.993 450.693L261.728 449.429L526.253 448.529L524.089 450.693L524.063 434.13L524.09 417.568L524.145 384.443L524.304 351.318L524.508 318.193L524.624 301.63L524.783 285.067L525.119 251.942L525.291 235.38L525.526 218.817L525.761 202.254L526.042 185.691C526.042 185.635 526.064 185.582 526.104 185.542C526.143 185.503 526.197 185.48 526.253 185.48C526.309 185.48 526.362 185.503 526.402 185.542C526.441 185.582 526.463 185.635 526.463 185.691L526.745 202.254L526.98 218.817L527.215 235.38L527.388 251.942L527.723 285.067L527.882 301.63L527.998 318.193L528.202 351.318L528.361 384.443L528.416 417.568L528.443 434.13L528.418 450.693V450.704C528.417 450.987 528.361 451.267 528.252 451.529C528.143 451.79 527.984 452.028 527.784 452.228C527.583 452.428 527.345 452.586 527.083 452.694C526.821 452.803 526.541 452.858 526.258 452.858H526.253L261.729 451.958H261.719C261.385 451.957 261.065 451.823 260.83 451.586C260.594 451.349 260.463 451.028 260.464 450.694V450.693L261.518 185.692C261.518 185.636 261.54 185.583 261.58 185.543C261.619 185.504 261.673 185.482 261.729 185.482C261.784 185.482 261.838 185.504 261.878 185.543C261.917 185.583 261.939 185.636 261.939 185.692Z" fill="black"/>
<path d="M488.588 450.693L488.312 439.512L488.081 428.331L487.851 417.15L487.678 405.97L487.35 383.608L487.187 372.427L487.073 361.246L486.866 338.884L486.71 316.522L486.644 294.16C486.64 286.706 486.578 279.252 486.621 271.798L488.798 273.975L299.183 273.046L300.43 271.798L299.944 361.246L299.393 450.695C299.393 450.751 299.371 450.805 299.331 450.844C299.292 450.884 299.238 450.906 299.182 450.906C299.126 450.906 299.073 450.884 299.033 450.844C298.993 450.805 298.971 450.751 298.971 450.695L298.42 361.246L297.934 271.798C297.932 271.469 298.061 271.152 298.293 270.918C298.524 270.684 298.839 270.552 299.168 270.55H299.181L488.797 269.62C489.371 269.618 489.923 269.843 490.331 270.247C490.74 270.652 490.971 271.201 490.974 271.776V271.798C491.018 279.252 490.955 286.706 490.951 294.16L490.885 316.522L490.729 338.884L490.522 361.246L490.408 372.427L490.246 383.608L489.918 405.97L489.744 417.15L489.514 428.331L489.284 439.512L489.008 450.693C489.007 450.721 489.001 450.748 488.989 450.774C488.978 450.799 488.962 450.822 488.942 450.841C488.922 450.86 488.898 450.875 488.872 450.885C488.847 450.895 488.819 450.899 488.791 450.899C488.738 450.897 488.687 450.874 488.649 450.836C488.611 450.798 488.589 450.747 488.588 450.693Z" fill="#263238"/>
<path d="M438.302 270.148L437.963 250.926C437.962 250.87 437.972 250.815 437.992 250.764C438.012 250.712 438.043 250.665 438.081 250.626C438.12 250.586 438.166 250.554 438.216 250.532C438.267 250.51 438.322 250.498 438.377 250.497H438.392L460.193 250.203L471.093 250.026C472.91 250.015 474.727 249.974 476.543 249.988C478.36 249.99 480.177 250.011 481.994 250.049L482.032 250.049C482.259 250.054 482.475 250.149 482.633 250.313C482.79 250.477 482.876 250.697 482.871 250.924V250.926C482.836 252.528 482.817 254.129 482.763 255.731C482.721 257.334 482.669 258.936 482.605 260.537C482.546 262.139 482.473 263.741 482.387 265.342C482.287 266.944 482.214 268.546 482.085 270.148C482.085 270.172 482.075 270.195 482.058 270.212C482.041 270.229 482.018 270.238 481.994 270.238C481.97 270.238 481.947 270.229 481.93 270.212C481.914 270.195 481.904 270.172 481.904 270.148C481.775 268.546 481.702 266.944 481.601 265.342C481.516 263.741 481.443 262.139 481.383 260.537C481.317 258.935 481.27 257.333 481.225 255.731C481.171 254.129 481.152 252.528 481.117 250.926L481.994 251.803C480.177 251.841 478.36 251.861 476.543 251.864C474.726 251.878 472.91 251.837 471.093 251.826L460.193 251.648L438.392 251.354L438.821 250.926L438.482 270.148C438.482 270.16 438.479 270.172 438.474 270.182C438.47 270.193 438.463 270.203 438.454 270.211C438.446 270.22 438.436 270.226 438.425 270.23C438.414 270.235 438.402 270.237 438.39 270.237C438.367 270.236 438.345 270.227 438.328 270.21C438.311 270.194 438.302 270.171 438.302 270.148ZM514.28 250.471L503.625 250.786C503.574 250.788 503.522 250.779 503.474 250.761C503.425 250.742 503.381 250.715 503.343 250.679C503.306 250.643 503.276 250.601 503.254 250.554C503.233 250.506 503.222 250.455 503.22 250.404V250.401L503.22 250.38L502.712 229.181C502.706 228.945 502.795 228.716 502.958 228.545C503.121 228.374 503.346 228.274 503.582 228.269H503.586L503.625 228.268C505.062 228.24 506.499 228.228 507.936 228.266C508.654 228.275 509.373 228.307 510.092 228.329C510.811 228.352 511.529 228.374 512.248 228.414C513.685 228.478 515.122 228.563 516.559 228.672C517.996 228.778 519.433 228.91 520.87 229.092C520.882 229.094 520.894 229.097 520.904 229.103C520.915 229.109 520.924 229.117 520.931 229.127C520.938 229.136 520.944 229.147 520.947 229.159C520.95 229.17 520.951 229.182 520.949 229.194C520.947 229.214 520.938 229.233 520.923 229.247C520.909 229.261 520.89 229.27 520.87 229.273C519.433 229.455 517.996 229.587 516.559 229.694C515.122 229.802 513.685 229.887 512.248 229.951C511.53 229.99 510.811 230.013 510.092 230.036C509.374 230.059 508.655 230.09 507.936 230.099C506.499 230.137 505.062 230.125 503.625 230.097L504.539 229.184L504.031 250.383L503.625 249.977L514.28 250.292C514.292 250.293 514.304 250.295 514.315 250.3C514.325 250.305 514.335 250.312 514.343 250.32C514.352 250.329 514.358 250.339 514.362 250.35C514.366 250.361 514.368 250.373 514.368 250.385C514.367 250.408 514.357 250.429 514.341 250.445C514.325 250.461 514.303 250.47 514.28 250.471Z" fill="black"/>
<path d="M459.477 229.091C466.744 228.942 474.011 228.738 481.278 228.637L492.178 228.453C495.812 228.399 499.445 228.275 503.079 228.249C503.2 228.248 503.321 228.271 503.434 228.317C503.546 228.363 503.649 228.43 503.735 228.515C503.822 228.601 503.891 228.702 503.938 228.814C503.986 228.926 504.01 229.047 504.011 229.168V229.181C504.026 230.948 504.013 232.715 503.974 234.481C503.928 236.248 503.892 238.015 503.819 239.781C503.756 241.549 503.672 243.316 503.566 245.081C503.517 245.965 503.457 246.848 503.386 247.731C503.321 248.614 503.258 249.498 503.169 250.381C503.169 250.405 503.16 250.428 503.143 250.445C503.126 250.462 503.103 250.471 503.079 250.471C503.055 250.471 503.032 250.462 503.015 250.445C502.998 250.428 502.988 250.405 502.988 250.381C502.899 249.498 502.836 248.614 502.771 247.731C502.703 246.848 502.639 245.964 502.591 245.081C502.485 243.316 502.401 241.549 502.339 239.781C502.265 238.015 502.229 236.248 502.184 234.481C502.144 232.715 502.132 230.948 502.146 229.181L503.079 230.114C499.445 230.087 495.812 229.963 492.178 229.91L481.278 229.726C474.011 229.625 466.744 229.421 459.477 229.272C459.453 229.272 459.43 229.262 459.413 229.245C459.396 229.228 459.387 229.205 459.387 229.181C459.387 229.157 459.396 229.134 459.413 229.118C459.43 229.101 459.453 229.091 459.477 229.091Z" fill="black"/>
<path d="M513.405 250.471L504.979 250.696C502.451 250.765 499.502 250.849 496.342 250.904L486.441 251.103L481.412 251.227C479.753 251.282 478.12 251.298 476.54 251.322C474.96 251.319 473.433 251.304 471.985 251.254C470.536 251.217 469.168 251.166 467.903 251.104C462.848 250.873 459.477 250.472 459.477 250.472C459.453 250.472 459.43 250.462 459.413 250.445C459.396 250.428 459.387 250.405 459.387 250.381C459.387 250.357 459.396 250.335 459.413 250.318C459.43 250.301 459.453 250.291 459.477 250.291C459.477 250.291 462.848 249.89 467.903 249.659C469.263 249.593 470.624 249.543 471.985 249.508C473.433 249.458 474.961 249.443 476.54 249.441C478.12 249.465 479.753 249.48 481.412 249.535L486.441 249.659L496.342 249.858C499.502 249.913 502.45 249.997 504.979 250.065L513.405 250.291C513.417 250.291 513.428 250.294 513.439 250.299C513.45 250.304 513.46 250.311 513.468 250.319C513.476 250.328 513.483 250.338 513.487 250.349C513.491 250.36 513.493 250.372 513.493 250.384C513.492 250.407 513.483 250.429 513.466 250.445C513.45 250.461 513.428 250.47 513.405 250.471Z" fill="black"/>
<path d="M415.329 229.091L437.13 228.8L458.93 228.565C459.011 228.564 459.09 228.579 459.164 228.609C459.239 228.639 459.306 228.683 459.364 228.739C459.421 228.795 459.467 228.862 459.498 228.935C459.529 229.009 459.546 229.088 459.547 229.168V229.181L459.787 250.38C459.788 250.491 459.768 250.602 459.726 250.705C459.685 250.808 459.624 250.902 459.546 250.982C459.468 251.061 459.375 251.125 459.273 251.168C459.171 251.212 459.061 251.235 458.95 251.236L458.93 251.237L453.481 251.293C451.664 251.302 449.847 251.332 448.03 251.312L442.58 251.284L437.13 251.203L431.68 251.09L426.23 250.926C424.413 250.862 422.596 250.826 420.779 250.734C418.962 250.65 417.146 250.581 415.329 250.471C415.305 250.471 415.283 250.461 415.266 250.444C415.249 250.427 415.239 250.404 415.239 250.38C415.239 250.356 415.249 250.333 415.266 250.316C415.283 250.299 415.305 250.29 415.329 250.29C417.146 250.179 418.963 250.111 420.779 250.027C422.596 249.935 424.413 249.899 426.23 249.835L431.68 249.671L437.13 249.557L442.58 249.477L448.03 249.448C449.847 249.428 451.664 249.459 453.481 249.468L458.93 249.524L458.074 250.38L458.314 229.181L458.93 229.798L437.13 229.562L415.329 229.272C415.305 229.272 415.283 229.262 415.266 229.245C415.249 229.228 415.239 229.205 415.239 229.181C415.239 229.157 415.249 229.134 415.266 229.118C415.283 229.101 415.305 229.091 415.329 229.091ZM326.943 250.381L326.587 229.182C326.585 229.066 326.629 228.953 326.71 228.87C326.791 228.786 326.902 228.738 327.018 228.736H327.033L348.834 228.46L359.734 228.287C361.551 228.274 363.368 228.246 365.184 228.243C367.001 228.245 368.818 228.259 370.635 228.286H370.671C370.785 228.287 370.899 228.311 371.004 228.357C371.11 228.402 371.205 228.468 371.285 228.55C371.365 228.632 371.428 228.729 371.47 228.836C371.513 228.942 371.534 229.056 371.532 229.171V229.183L371.426 233.164C371.374 234.492 371.336 235.819 371.264 237.146C371.205 238.474 371.126 239.801 371.042 241.129C370.936 242.456 370.862 243.783 370.725 245.11C370.722 245.132 370.712 245.153 370.695 245.168C370.678 245.183 370.657 245.191 370.635 245.191C370.612 245.191 370.591 245.183 370.574 245.168C370.557 245.153 370.547 245.132 370.544 245.11C370.408 243.783 370.334 242.455 370.226 241.129C370.142 239.801 370.064 238.474 370.005 237.146C369.934 235.819 369.895 234.492 369.843 233.164L369.737 229.183L370.634 230.08C368.817 230.105 367 230.124 365.183 230.122C363.367 230.119 361.55 230.092 359.734 230.078L348.833 229.905L327.032 229.629L327.479 229.183L327.123 250.381C327.122 250.393 327.12 250.405 327.115 250.416C327.111 250.427 327.104 250.436 327.095 250.445C327.087 250.453 327.077 250.459 327.066 250.464C327.055 250.468 327.043 250.47 327.031 250.47C327.008 250.469 326.986 250.459 326.97 250.443C326.953 250.426 326.944 250.404 326.943 250.381ZM282.796 250.381C282.65 243.315 282.452 236.248 282.351 229.182C282.349 229.042 282.402 228.907 282.5 228.807C282.597 228.707 282.73 228.649 282.87 228.647H282.885L293.786 228.464L299.236 228.357C301.052 228.31 302.869 228.272 304.685 228.256C306.502 228.222 308.319 228.251 310.136 228.277C311.953 228.324 313.77 228.354 315.586 228.431C317.403 228.493 319.22 228.579 321.036 228.685C321.945 228.734 322.853 228.797 323.761 228.868C324.669 228.935 325.578 228.999 326.486 229.091C326.508 229.094 326.529 229.104 326.544 229.121C326.559 229.138 326.567 229.159 326.567 229.181C326.567 229.204 326.559 229.225 326.544 229.242C326.529 229.259 326.508 229.269 326.486 229.272C325.578 229.364 324.669 229.428 323.761 229.495C322.853 229.567 321.944 229.629 321.036 229.679C319.22 229.784 317.403 229.871 315.586 229.933C313.769 230.009 311.952 230.04 310.136 230.087C308.319 230.112 306.502 230.141 304.685 230.107C302.869 230.089 301.052 230.056 299.236 230.007L293.786 229.899L282.885 229.717L283.42 229.181C283.319 236.248 283.121 243.315 282.976 250.38C282.975 250.392 282.973 250.404 282.968 250.415C282.963 250.426 282.956 250.435 282.948 250.444C282.939 250.452 282.929 250.458 282.918 250.463C282.907 250.467 282.895 250.469 282.883 250.469C282.86 250.468 282.838 250.459 282.822 250.442C282.805 250.426 282.796 250.404 282.796 250.381ZM482.449 228.636C482.304 221.57 482.106 214.503 482.005 207.437C482.003 207.297 482.056 207.163 482.154 207.062C482.251 206.962 482.384 206.905 482.524 206.903L482.54 206.902L493.44 206.72L498.89 206.612C500.707 206.565 502.524 206.527 504.341 206.512C506.157 206.478 507.974 206.506 509.791 206.532C511.608 206.579 513.424 206.61 515.241 206.686C517.058 206.748 518.875 206.835 520.691 206.941C521.599 206.989 522.508 207.052 523.416 207.124C524.325 207.191 525.233 207.255 526.141 207.347C526.165 207.349 526.187 207.361 526.202 207.38C526.218 207.398 526.225 207.422 526.223 207.446C526.221 207.467 526.211 207.486 526.197 207.501C526.182 207.516 526.162 207.525 526.141 207.527C525.233 207.619 524.325 207.683 523.416 207.751C522.508 207.822 521.599 207.885 520.691 207.934C518.874 208.04 517.058 208.126 515.241 208.188C513.424 208.264 511.607 208.296 509.791 208.343C507.974 208.368 506.157 208.397 504.341 208.362C502.523 208.345 500.707 208.312 498.89 208.262L493.44 208.155L482.54 207.972L483.075 207.437C482.973 214.503 482.775 221.57 482.63 228.636C482.63 228.66 482.62 228.683 482.604 228.7C482.587 228.717 482.564 228.726 482.54 228.726C482.516 228.726 482.493 228.717 482.476 228.7C482.459 228.683 482.449 228.66 482.449 228.636Z" fill="black"/>
<path d="M439.051 207.347C446.317 207.198 453.584 206.993 460.851 206.892L471.751 206.709C475.385 206.654 479.018 206.531 482.652 206.504C482.897 206.502 483.133 206.598 483.308 206.77C483.483 206.943 483.582 207.177 483.584 207.423V207.437C483.599 209.203 483.586 210.97 483.547 212.737C483.501 214.503 483.465 216.27 483.392 218.036C483.329 219.804 483.245 221.57 483.139 223.336C483.09 224.22 483.03 225.103 482.959 225.986C482.894 226.869 482.831 227.753 482.742 228.636C482.742 228.66 482.733 228.683 482.716 228.7C482.699 228.717 482.676 228.726 482.652 228.726C482.628 228.726 482.605 228.717 482.588 228.7C482.571 228.683 482.561 228.66 482.561 228.636C482.472 227.753 482.409 226.869 482.344 225.986C482.274 225.103 482.214 224.22 482.164 223.336C482.058 221.57 481.974 219.804 481.912 218.036C481.838 216.269 481.802 214.503 481.757 212.737C481.717 210.97 481.705 209.203 481.719 207.437L482.652 208.369C479.018 208.343 475.385 208.219 471.751 208.164L460.851 207.981C453.584 207.88 446.317 207.676 439.051 207.526C439.039 207.526 439.027 207.523 439.016 207.519C439.005 207.514 438.996 207.507 438.987 207.499C438.979 207.49 438.973 207.48 438.968 207.469C438.964 207.458 438.962 207.446 438.962 207.434C438.963 207.411 438.973 207.389 438.989 207.373C439.006 207.357 439.028 207.347 439.051 207.347ZM349.549 228.726L327.748 228.969L305.948 229.181C305.877 229.182 305.807 229.169 305.741 229.142C305.675 229.116 305.615 229.077 305.565 229.027C305.514 228.977 305.474 228.918 305.446 228.853C305.418 228.788 305.404 228.718 305.403 228.647V228.637L305.226 207.438C305.225 207.251 305.296 207.071 305.426 206.936C305.555 206.801 305.732 206.722 305.919 206.716L305.949 206.715C307.765 206.659 309.582 206.63 311.398 206.599C313.215 206.561 315.032 206.536 316.849 206.53C320.482 206.509 324.116 206.463 327.749 206.48C331.382 206.475 335.015 206.515 338.649 206.538C342.283 206.586 345.916 206.622 349.55 206.698L349.575 206.698C349.768 206.703 349.951 206.783 350.085 206.921C350.218 207.06 350.292 207.245 350.289 207.438C350.239 210.971 350.115 214.504 350.03 218.037C349.987 219.804 349.929 221.571 349.857 223.337C349.792 225.104 349.728 226.87 349.639 228.637V228.641C349.638 228.664 349.628 228.685 349.611 228.701C349.594 228.717 349.572 228.726 349.549 228.726ZM349.455 228.544C349.368 226.808 349.305 225.072 349.241 223.336C349.169 221.57 349.112 219.803 349.069 218.036C348.984 214.503 348.86 210.97 348.809 207.437L349.549 208.176C345.915 208.252 342.282 208.288 338.649 208.336C335.015 208.359 331.382 208.4 327.748 208.394C324.115 208.412 320.481 208.365 316.848 208.344C315.031 208.338 313.215 208.313 311.398 208.276C309.581 208.244 307.765 208.215 305.948 208.159L306.67 207.437L306.493 228.635L305.948 228.091L327.748 228.302L349.455 228.544Z" fill="black"/>
<path d="M305.492 207.437C305.637 214.503 305.835 221.57 305.936 228.636C305.938 228.776 305.885 228.911 305.787 229.011C305.69 229.111 305.557 229.169 305.417 229.171H305.402L294.501 229.354L289.051 229.461C287.234 229.508 285.417 229.546 283.601 229.562C281.784 229.596 279.967 229.567 278.151 229.541C276.334 229.494 274.517 229.463 272.701 229.387C270.883 229.324 269.066 229.239 267.25 229.133C266.341 229.083 265.433 229.022 264.525 228.95C263.617 228.883 262.709 228.819 261.8 228.727C261.778 228.724 261.758 228.714 261.743 228.697C261.728 228.68 261.72 228.659 261.72 228.637C261.72 228.614 261.728 228.593 261.743 228.576C261.758 228.559 261.778 228.549 261.8 228.546C262.709 228.455 263.617 228.391 264.525 228.324C265.434 228.252 266.342 228.189 267.25 228.141C269.066 228.034 270.883 227.949 272.701 227.886C274.517 227.81 276.334 227.779 278.151 227.732C279.967 227.706 281.784 227.678 283.601 227.712C285.418 227.728 287.235 227.765 289.051 227.812L294.501 227.92L305.402 228.103L304.867 228.638C304.968 221.572 305.166 214.505 305.312 207.439C305.312 207.427 305.314 207.415 305.319 207.405C305.324 207.394 305.331 207.384 305.339 207.376C305.348 207.367 305.358 207.361 305.369 207.357C305.38 207.352 305.392 207.35 305.404 207.35C305.427 207.35 305.449 207.36 305.465 207.376C305.482 207.392 305.491 207.414 305.492 207.437ZM370.725 192.282L371.082 206.892C371.085 207.007 371.041 207.119 370.962 207.203C370.882 207.286 370.772 207.335 370.657 207.338H370.636L348.835 207.614L337.935 207.787C336.118 207.801 334.301 207.828 332.485 207.831C330.668 207.833 328.851 207.813 327.034 207.789H327.004C326.889 207.787 326.775 207.763 326.669 207.717C326.563 207.672 326.467 207.606 326.386 207.523C326.306 207.44 326.242 207.342 326.199 207.235C326.157 207.128 326.136 207.013 326.137 206.898V206.892L326.244 201.592C326.295 199.825 326.333 198.059 326.405 196.292C326.464 194.525 326.543 192.759 326.627 190.992C326.734 189.225 326.808 187.459 326.944 185.692C326.944 185.668 326.954 185.645 326.971 185.628C326.988 185.612 327.011 185.602 327.035 185.602C327.059 185.602 327.082 185.612 327.099 185.628C327.116 185.645 327.125 185.668 327.125 185.692C327.262 187.459 327.336 189.225 327.442 190.992C327.527 192.759 327.605 194.525 327.664 196.292C327.735 198.059 327.774 199.825 327.826 201.592L327.932 206.892L327.035 205.995C328.852 205.97 330.669 205.951 332.486 205.953C334.303 205.956 336.119 205.983 337.936 205.997L348.836 206.17L370.637 206.446L370.19 206.892L370.547 192.282C370.547 192.271 370.55 192.259 370.554 192.248C370.559 192.237 370.566 192.227 370.575 192.219C370.583 192.211 370.594 192.205 370.605 192.2C370.616 192.196 370.628 192.194 370.639 192.195C370.662 192.195 370.684 192.205 370.7 192.221C370.716 192.237 370.725 192.259 370.725 192.282Z" fill="black"/>
<path d="M327.236 185.692C327.38 192.759 327.575 199.825 327.678 206.892C327.68 207.031 327.626 207.165 327.53 207.264C327.433 207.364 327.301 207.421 327.162 207.423H327.147L305.017 207.816C303.173 207.852 301.329 207.823 299.484 207.798C297.64 207.752 295.796 207.721 293.952 207.645C292.107 207.582 290.262 207.497 288.419 207.39C287.497 207.34 286.575 207.279 285.653 207.207C284.731 207.139 283.809 207.075 282.887 206.983C282.863 206.983 282.84 206.973 282.823 206.956C282.806 206.939 282.797 206.916 282.797 206.892C282.797 206.868 282.806 206.845 282.823 206.828C282.84 206.812 282.863 206.802 282.887 206.802C283.809 206.71 284.731 206.646 285.653 206.578C286.576 206.506 287.497 206.443 288.419 206.394C290.263 206.288 292.107 206.202 293.952 206.139C295.796 206.063 297.64 206.032 299.484 205.986C301.328 205.961 303.173 205.933 305.017 205.969L327.147 206.361L326.615 206.893C326.717 199.827 326.912 192.76 327.056 185.694C327.057 185.682 327.059 185.67 327.064 185.659C327.069 185.648 327.076 185.638 327.084 185.63C327.093 185.622 327.103 185.616 327.114 185.611C327.125 185.607 327.137 185.605 327.148 185.605C327.172 185.605 327.194 185.614 327.21 185.631C327.227 185.647 327.236 185.669 327.236 185.692Z" fill="black"/>
<path d="M388.097 139.971C408.674 139.971 425.355 123.29 425.355 102.713C425.355 82.1363 408.674 65.4555 388.097 65.4555C367.52 65.4555 350.839 82.1363 350.839 102.713C350.839 123.29 367.52 139.971 388.097 139.971Z" fill="#E8EAF6"/>
<path d="M380.938 139.284L378.502 138.839C377.702 138.728 376.751 138.406 375.607 138.099C374.443 137.832 373.212 137.264 371.777 136.735C368.998 135.497 365.684 133.71 362.412 130.912C358.708 127.772 355.644 123.948 353.386 119.649C350.856 114.931 349.267 109.162 349.06 102.968C348.88 96.789 350.217 90.1332 353.404 84.0886C356.572 78.0643 361.436 72.5976 367.597 68.8495C370.675 66.9881 374.02 65.497 377.537 64.5254C378.408 64.2545 379.306 64.0847 380.194 63.871C381.093 63.7133 381.987 63.5188 382.897 63.4195C383.802 63.284 384.713 63.2094 385.626 63.1432C386.081 63.0974 386.539 63.098 386.996 63.0812L387.681 63.0613L388.024 63.0517L388.25 63.0523L388.412 63.0559C390.048 63.0715 392.073 63.2196 393.834 63.4851C395.639 63.7741 397.435 64.1329 399.178 64.6698C400.06 64.904 400.91 65.2345 401.772 65.5241C402.614 65.866 403.469 66.1766 404.286 66.5704C405.945 67.3042 407.529 68.1837 409.054 69.1367C415.181 72.9413 419.965 78.4936 423.041 84.5635C424.579 87.6054 425.715 90.7876 426.355 93.9981C426.702 95.597 426.899 97.2043 427.048 98.79C427.084 99.5864 427.161 100.375 427.159 101.161L427.165 102.336L427.167 102.628L427.167 102.701C427.164 102.888 427.164 102.792 427.161 102.852L427.152 102.991L427.115 103.545L426.972 105.743C426.961 106.098 426.901 106.485 426.84 106.87L426.665 108.014L426.489 109.147L426.401 109.71L426.268 110.25L425.728 112.38C425.574 113.09 425.296 113.759 425.067 114.433C424.823 115.102 424.609 115.775 424.345 116.421L423.485 118.309L423.061 119.237C422.905 119.537 422.732 119.826 422.57 120.119C420.261 124.392 417.147 128.177 413.398 131.265C410.087 134.018 406.747 135.756 403.95 136.953C402.511 137.47 401.266 138.013 400.106 138.265C398.962 138.559 398.009 138.862 397.2 138.964L394.754 139.377L397.132 138.696C397.915 138.515 398.831 138.116 399.919 137.715C400.463 137.512 401.047 137.299 401.639 136.991L403.546 136.085C406.165 134.682 409.207 132.71 412.174 129.887C415.13 127.065 417.965 123.361 420.102 118.872C420.237 118.592 420.383 118.316 420.511 118.031L420.853 117.149L421.548 115.364C421.757 114.755 421.916 114.122 422.106 113.496C422.28 112.864 422.504 112.242 422.605 111.581L423 109.609L423.103 109.112L423.157 108.618L423.27 107.624L423.386 106.626C423.428 106.294 423.472 105.962 423.468 105.587L423.522 103.384L423.535 102.829L423.538 102.69C423.537 102.704 423.541 102.562 423.537 102.703L423.534 102.637L423.522 102.372L423.472 101.307C423.445 100.595 423.343 99.8832 423.284 99.1662C423.089 97.7395 422.854 96.3001 422.482 94.8776C422.389 94.5224 422.306 94.1636 422.206 93.8085L421.88 92.7477C421.684 92.0325 421.398 91.3427 421.162 90.6329C420.602 89.2465 420.017 87.8523 419.275 86.5224C417.855 83.8321 416.011 81.32 413.886 79.0372C411.732 76.7791 409.283 74.7552 406.584 73.0804C405.231 72.252 403.829 71.4857 402.362 70.853C401.641 70.5098 400.885 70.2468 400.142 69.9488C399.38 69.7038 398.631 69.4136 397.853 69.2167C396.316 68.7544 394.733 68.4564 393.145 68.2132C391.503 67.9899 390.091 67.8911 388.286 67.8683L388.125 67.8635L388.044 67.861C388.14 67.8622 388.029 67.8628 388.029 67.8628L387.727 67.8701L387.123 67.8827C386.721 67.8948 386.317 67.8881 385.916 67.9267C385.113 67.9796 384.31 68.0362 383.513 68.1506C382.711 68.2289 381.925 68.398 381.132 68.5269C380.351 68.7117 379.557 68.8489 378.79 69.0843C375.689 69.9121 372.733 71.2034 370.002 72.8215C367.297 74.4818 364.792 76.4371 362.626 78.6868C362.066 79.2316 361.575 79.8372 361.05 80.4097C360.572 81.0202 360.056 81.6005 359.616 82.2344C358.68 83.4625 357.882 84.7748 357.125 86.0926C354.192 91.4263 352.7 97.3109 352.637 102.946L352.687 105.044C352.701 105.392 352.687 105.74 352.725 106.083L352.841 107.108C352.921 107.788 352.986 108.467 353.075 109.137L353.466 111.109L353.655 112.087L353.926 113.035L354.464 114.91C354.664 115.522 354.917 116.109 355.137 116.703C355.377 117.288 355.558 117.894 355.854 118.442C357.939 122.957 360.724 126.698 363.642 129.559C366.572 132.422 369.584 134.439 372.185 135.878C374.837 137.231 377.013 138.099 378.562 138.573C380.113 139.036 380.938 139.284 380.938 139.284Z" fill="#D9DBE8"/>
<path d="M390.538 131.985H386.632L386.144 125.149H391.027L390.538 131.985Z" fill="#6D4C41"/>
<path d="M411.185 124.162C409.564 120.419 404.942 114.78 404.942 114.78L407.261 114.302C406.714 112.697 400.384 103.672 400.384 103.672L403.477 106.038L405.107 105.163C403.163 101.225 398.474 93.7422 398.474 93.7422L399.9 93.9409L401.271 93.2281L396.041 86.1829L397.537 85.1926L388.194 72.4393L378.879 85.1186L380.71 85.9554L375.117 93.5129L376.842 94.0733L378.452 93.2859C378.452 93.2859 371.064 104.747 370.465 106.76L372.306 107.37L375.806 104.615C375.806 104.615 369.475 114.136 368.897 115.614L370.924 116.256C370.924 116.256 366.905 122.616 366.179 124.663L375.829 126.257C375.829 126.257 378.39 120.38 379.611 119.35C378.797 121.658 377.272 127.208 377.272 127.208L378.414 127.281L379.939 124.595L379.691 127.359C379.691 127.359 384.65 128.083 387.611 128.083C391.144 128.083 399.756 127.5 402.908 127.028C402.908 127.028 402.196 124.172 401.707 121.937C402.765 123.033 404.149 126.06 404.149 126.06L411.185 124.162Z" fill="#80CBC4"/>
<path d="M381.749 88.5253C383.098 88.5253 384.191 87.4321 384.191 86.0836C384.191 84.7351 383.098 83.6419 381.749 83.6419C380.401 83.6419 379.308 84.7351 379.308 86.0836C379.308 87.4321 380.401 88.5253 381.749 88.5253Z" fill="#FF5252"/>
<path d="M398.352 116.359C399.431 116.359 400.305 115.485 400.305 114.406C400.305 113.327 399.431 112.452 398.352 112.452C397.273 112.452 396.398 113.327 396.398 114.406C396.398 115.485 397.273 116.359 398.352 116.359Z" fill="#FF5252"/>
<path d="M370.518 121.242C371.596 121.242 372.471 120.368 372.471 119.289C372.471 118.211 371.596 117.336 370.518 117.336C369.439 117.336 368.565 118.211 368.565 119.289C368.565 120.368 369.439 121.242 370.518 121.242Z" fill="#FF5252"/>
<path d="M385.167 111.965C386.516 111.965 387.609 110.872 387.609 109.523C387.609 108.175 386.516 107.081 385.167 107.081C383.819 107.081 382.726 108.175 382.726 109.523C382.726 110.872 383.819 111.965 385.167 111.965Z" fill="#FF5252"/>
<path d="M392.98 95.3616C394.329 95.3616 395.422 94.2684 395.422 92.9199C395.422 91.5714 394.329 90.4782 392.98 90.4782C391.632 90.4782 390.538 91.5714 390.538 92.9199C390.538 94.2684 391.632 95.3616 392.98 95.3616Z" fill="#FF5252"/>
<path d="M391.147 118.484L391.018 120.961L393.469 122.331L390.886 122.561L390.671 125.391L389.11 123.012L386.632 123.448L388.258 121.416L387.435 119.614L389.295 120.246L391.147 118.484ZM390.608 79.6085L390.479 82.0857L392.929 83.4559L390.347 83.6858L390.133 86.5152L388.571 84.1367L386.093 84.5726L387.719 82.5408L386.896 80.7384L388.755 81.3705L390.608 79.6085ZM376.242 110.299L377.55 112.093L380.026 111.661L378.363 113.278L379.811 115.365L377.384 114.594L375.909 116.296L375.891 113.966L374.302 113.18L375.95 112.569L376.242 110.299ZM395.915 100.571L395.8 102.789L397.993 104.016L395.682 104.221L395.489 106.754L394.093 104.625L391.874 105.015L393.329 103.197L392.593 101.583L394.258 102.149L395.915 100.571ZM381.65 97.158L382.659 99.1356L385.172 99.1L383.274 100.435L383.786 102.247L382.1 101.58L380.374 103.027L380.725 100.724L379.28 99.696L381.003 99.3535L381.65 97.158ZM404.124 115.307L405.133 117.285L407.646 117.25L405.748 118.583L406.26 120.396L404.574 119.729L402.848 121.177L403.199 118.873L401.754 117.845L403.477 117.503L404.124 115.307Z" fill="white"/>
<path d="M418.747 151.204H357.448V149.487C357.448 139.461 365.575 131.332 375.602 131.332H400.593C410.619 131.332 418.747 139.46 418.747 149.487V151.204Z" fill="#FF5252"/>
<path d="M355.878 147.454H420.316V151.204H355.878V147.454Z" fill="#E83A3A"/>
<path d="M203.683 536.545H306.314V373.617H234.42C218.016 373.617 204.717 386.916 204.717 403.32L203.683 536.545Z" fill="#B76F58"/>
<path d="M130.925 536.545H234.938V322.904C234.938 286.814 204.648 257.557 168.558 257.557H120.478C81.6511 257.557 51.3885 291.213 55.499 329.822L71.8529 483.428C75.0682 513.631 100.55 536.545 130.925 536.545Z" fill="#B76F58"/>
<path d="M116.577 536.545H234.938V322.904C234.938 286.814 205.681 257.557 169.591 257.557H157.495C122.697 257.557 95.3508 287.332 98.3036 322.005L116.577 536.545Z" fill="#D69176"/>
<path d="M139.902 536.545H276.777L276.611 449.736C276.611 433.331 263.312 420.033 246.908 420.033H77.5074L80.5734 480.164C82.1844 511.755 108.269 536.545 139.902 536.545Z" fill="#D69176"/>
<path d="M140.993 399.827C143.239 396.083 159.399 385.372 186.132 386.164C188.763 389.781 212.271 414.085 212.271 414.085C212.271 414.085 211.479 440.817 195.043 444.976C176.107 449.766 150.183 441.976 145.745 425.371C142.251 412.298 143.517 410.966 140.993 399.827Z" fill="#FFB74D"/>
<path d="M197.123 342.554C194.527 344.658 189.548 348.211 187.618 357.691C186.532 363.021 177.143 322.171 162.89 314.907C148.785 307.718 152.324 336.333 152.324 336.333C152.324 336.333 168.833 386.474 173.955 388.433C188.85 394.132 208.514 368.384 204.593 347.406C205.219 346.751 198.767 341.221 197.123 342.554Z" fill="#E5B735"/>
<path d="M399.541 352.947C397.904 350.922 395.367 351.64 391.054 353.335C384.875 355.763 364.145 355.713 364.145 355.713L352.222 366.376L367.92 369.584C370.299 374.279 375.183 375.364 378.429 372.914L398.995 357.387C400.307 356.387 400.579 354.229 399.541 352.947Z" fill="#FF5252"/>
<path d="M217.965 419.438C217.965 419.438 242.718 396.072 259.859 374.312C292.104 376.106 320.849 371.361 365.993 369.423L369.102 354.863C320.507 342.809 290.149 341.108 254.514 336.466C232.01 337.798 187.271 388.543 172.977 400.963C165.008 411.919 176.293 427.187 186.017 426.66C200.819 425.858 217.965 419.438 217.965 419.438Z" fill="#1B8C7E"/>
<path d="M186.697 386.049C186.697 386.049 183.316 372.919 180.695 360.519C179.347 354.143 184.836 347.582 181.776 341.849C178.468 335.655 174.179 320.827 171.085 316.295C168.716 312.826 164.878 310.644 160.689 310.33C149.092 309.462 143.892 311.067 136.271 310.992C117.716 310.81 117.442 313.116 111.875 316.552C112.218 318.06 117.494 345.955 119.926 354.48C124.388 370.123 138.479 390.511 140.696 398.151L186.697 386.049Z" fill="#FFD54F"/>
<path d="M153.242 249.554C152.62 249.442 151.994 249.352 151.366 249.284L151.33 249.625C151.965 249.567 152.604 249.543 153.242 249.554Z" fill="#D69176"/>
<path d="M166.577 255.978C169.6 259.652 171.138 264.531 170.43 269.617L167.45 291.043C166.328 299.107 150.817 303.613 150.817 303.613L151.677 312.988L156.69 317.166C159.668 319.648 159.716 324.206 156.791 326.75C153.166 329.901 154.266 335.788 158.783 337.419L170.093 341.503L168.155 339.565C165.233 336.643 165.871 331.747 169.445 329.671L173.879 327.097C177.399 325.053 178.082 320.254 175.271 317.309L173.159 315.096C170.572 312.386 170.912 308.028 173.889 305.752L175.62 304.428C176.472 303.777 177.144 302.919 177.571 301.934C177.998 300.95 178.166 299.873 178.06 298.805C177.235 290.587 175.221 270.417 174.916 266.597C174.517 261.592 171.708 260.522 166.577 255.978Z" fill="#7986CB"/>
<path d="M147.095 322.509C141.288 322.939 136.231 318.58 135.802 312.773L134.315 292.707L152.406 291.367L154.11 314.371C154.42 318.556 151.28 322.199 147.095 322.509Z" fill="#FFAF99"/>
<path d="M150.817 303.613C158.882 304.735 166.328 299.107 167.45 291.043L170.43 269.617C171.773 259.968 165.039 251.059 155.391 249.717C145.744 248.374 136.833 255.108 135.491 264.756L133.309 280.445C131.746 291.677 139.585 302.05 150.817 303.613Z" fill="#FFAF99"/>
<path d="M131.479 256.553C126.078 267.639 114.175 294.746 114.175 294.746C114.175 294.746 109.824 299.099 114.251 305.859C117.838 311.336 108.391 313.545 108.311 321.899C109.598 318.434 112.172 314.919 120.192 313.582C125.081 312.767 128.029 317.695 134.932 309.243C138.469 286.916 133.076 286.648 133.111 283.095C133.115 282.731 134.148 277.839 134.148 277.839C135.17 277.861 136.165 277.508 136.943 276.845C137.721 276.182 138.229 275.257 138.37 274.244L139.61 265.329C140.5 258.93 146.409 254.465 152.807 255.355L154.573 255.601C156.137 255.818 157.646 256.08 159.071 256.407C166.436 258.098 171.556 261.533 170.431 269.617L168.797 281.365C172.574 279.316 174.125 275.632 174.661 271.534C175.954 261.641 170.877 251.258 161.565 247.673C148.113 242.493 136.713 245.809 131.479 256.553Z" fill="#7986CB"/>
<path d="M156.5 287.531C156.053 287.534 155.606 287.507 155.163 287.449C155.005 287.427 154.863 287.343 154.766 287.216C154.67 287.088 154.629 286.928 154.651 286.77C154.673 286.612 154.756 286.469 154.883 286.373C155.011 286.277 155.171 286.235 155.329 286.256C156.105 286.365 157.167 286.348 158.399 286.209C158.572 286.19 158.738 286.131 158.884 286.036C159.029 285.942 159.151 285.814 159.238 285.664C159.328 285.513 159.381 285.343 159.393 285.168C159.406 284.992 159.377 284.817 159.309 284.655C157.518 280.336 156.692 277.555 156.855 276.387C156.877 276.229 156.961 276.087 157.088 275.991C157.215 275.895 157.376 275.853 157.534 275.875C157.692 275.897 157.834 275.98 157.931 276.108C158.027 276.235 158.069 276.395 158.047 276.553C157.922 277.451 158.81 280.307 160.422 284.193C160.562 284.527 160.622 284.89 160.596 285.251C160.571 285.613 160.461 285.964 160.276 286.275C160.094 286.587 159.842 286.851 159.54 287.048C159.238 287.244 158.893 287.367 158.535 287.406C157.859 287.485 157.18 287.527 156.5 287.531ZM156.523 295.63C156.137 295.63 155.748 295.604 155.359 295.55C154.275 295.402 153.232 295.041 152.288 294.487C151.345 293.933 150.521 293.198 149.864 292.323C149.768 292.196 149.726 292.036 149.748 291.877C149.77 291.719 149.854 291.576 149.982 291.48C150.109 291.384 150.27 291.342 150.428 291.364C150.586 291.386 150.729 291.47 150.825 291.597C153.193 294.73 157.667 295.352 160.799 292.985C160.862 292.937 160.934 292.903 161.01 292.883C161.087 292.863 161.167 292.858 161.245 292.869C161.323 292.88 161.399 292.906 161.467 292.946C161.535 292.986 161.595 293.039 161.642 293.102C161.69 293.165 161.725 293.237 161.745 293.314C161.765 293.39 161.769 293.47 161.758 293.548C161.747 293.627 161.721 293.702 161.681 293.77C161.641 293.838 161.588 293.898 161.525 293.946C160.087 295.039 158.33 295.63 156.523 295.63Z" fill="#263238"/>
<path d="M139.929 298.557C139.929 298.557 140.19 298.68 140.621 298.919C141.058 299.142 141.662 299.47 142.395 299.833C143.862 300.552 145.806 301.413 147.829 302.025C148.332 302.187 148.844 302.321 149.347 302.457C149.853 302.582 150.353 302.702 150.841 302.807C151.335 302.913 151.787 302.994 152.245 303.062C152.695 303.127 153.126 303.184 153.529 303.222C153.922 303.251 154.322 303.288 154.619 303.295C154.96 303.288 155.26 303.301 155.507 303.307C156 303.323 156.286 303.352 156.286 303.352C156.286 303.352 156.028 303.478 155.569 303.661C155.339 303.752 155.061 303.866 154.739 303.976C154.371 304.097 154.011 304.185 153.577 304.258C153.151 304.335 152.683 304.397 152.184 304.421C151.693 304.445 151.145 304.44 150.614 304.393C149.488 304.299 148.375 304.084 147.296 303.751C146.747 303.581 146.209 303.38 145.683 303.15C145.423 303.042 145.168 302.923 144.919 302.792C144.672 302.673 144.43 302.544 144.195 302.403C143.744 302.148 143.308 301.867 142.891 301.561C142.515 301.29 142.156 300.999 141.813 300.689C141.487 300.41 141.214 300.126 140.976 299.873C140.734 299.625 140.546 299.38 140.386 299.192C140.227 298.985 140.075 298.774 139.929 298.557Z" fill="#F78C74"/>
<path d="M133.958 283.989C136.136 283.283 137.065 280.131 136.033 276.948C135.001 273.766 132.399 271.758 130.221 272.464C128.044 273.17 127.115 276.323 128.146 279.505C129.178 282.688 131.78 284.695 133.958 283.989Z" fill="#FFAF99"/>
<path d="M134.148 277.837C133.041 278.077 132.589 278.662 132.625 279.271C132.668 279.994 133.233 281.073 134.223 281.619C134.062 281.856 133.825 282.032 133.552 282.118C132.368 282.502 130.944 281.785 130.248 279.636C129.551 277.489 129.947 275.437 131.13 275.053C132.315 274.669 133.452 275.69 134.148 277.837Z" fill="#F78C74"/>
<path d="M149.067 278.231C149.788 278.331 150.505 277.458 150.668 276.28C150.832 275.102 150.381 274.067 149.66 273.966C148.94 273.866 148.223 274.739 148.059 275.917C147.895 277.095 148.347 278.131 149.067 278.231Z" fill="#263238"/>
<path d="M163.258 280.204C163.979 280.305 164.695 279.431 164.859 278.254C165.023 277.076 164.572 276.04 163.851 275.94C163.13 275.84 162.414 276.713 162.25 277.891C162.086 279.068 162.538 280.104 163.258 280.204Z" fill="#263238"/>
<path d="M167.786 272.833C167.694 272.833 167.603 272.812 167.521 272.772C167.438 272.731 167.366 272.673 167.31 272.6C166.358 271.374 164.753 270.686 162.897 270.706H162.889C162.729 270.707 162.576 270.645 162.462 270.532C162.349 270.42 162.284 270.267 162.283 270.108C162.283 269.948 162.345 269.795 162.457 269.681C162.569 269.567 162.722 269.503 162.882 269.502C165.119 269.482 167.075 270.335 168.261 271.862C168.33 271.951 168.372 272.057 168.384 272.169C168.395 272.281 168.375 272.394 168.326 272.496C168.276 272.597 168.2 272.682 168.104 272.742C168.009 272.801 167.898 272.833 167.786 272.833ZM153.666 269.454C153.607 269.454 153.547 269.445 153.486 269.426C150.487 268.489 148.185 268.452 146.45 269.312C146.379 269.348 146.302 269.369 146.222 269.375C146.143 269.381 146.064 269.371 145.988 269.345C145.913 269.32 145.843 269.281 145.783 269.228C145.723 269.176 145.675 269.113 145.639 269.042C145.604 268.971 145.583 268.893 145.578 268.814C145.573 268.735 145.583 268.655 145.609 268.58C145.635 268.505 145.675 268.436 145.727 268.376C145.78 268.316 145.844 268.268 145.915 268.233C147.941 267.23 150.536 267.243 153.845 268.277C153.983 268.32 154.1 268.41 154.177 268.533C154.253 268.655 154.284 268.8 154.262 268.942C154.24 269.085 154.168 269.215 154.059 269.309C153.95 269.402 153.81 269.454 153.666 269.454Z" fill="#263238"/>
<path d="M188.392 363.473L193.534 363.505C198.853 363.539 203.192 359.253 203.226 353.934L203.329 337.497L178.923 337.344L178.821 353.78C178.787 359.1 183.072 363.44 188.392 363.473Z" fill="#E83A3A"/>
<path d="M205.068 359.325C205.357 358.947 207.148 356.315 208.188 353.297C209.091 350.679 208.223 346.34 208.187 346.028C208.187 346.028 204.349 341.309 203.308 341.901C202.784 343.272 203.283 345.959 203.276 347.033C201.589 347.733 199.998 348.324 199.525 348.414C195.7 349.143 197.42 351.824 199.935 351.393C200.538 351.289 201.751 351.014 203.147 350.636C201.087 351.531 198.818 352.399 198.238 352.51C195.245 353.08 196.096 354.772 197.461 355.332C195.173 356.177 196.355 358.58 198.006 358.291C198.051 358.283 198.104 358.273 198.158 358.263C196.699 359.266 197.8 361.185 199.285 360.925C201.066 360.614 205.787 358.932 205.068 359.325ZM192.104 345.815C191.203 345.588 187.718 344.977 183.45 344.879C179.05 344.779 173.026 347.355 170.893 348.708C168.393 351.669 169.143 351.786 166.92 355.03C165.365 357.3 171.575 362.866 176.49 363.344C179.057 363.594 182.929 361.905 183.264 361.423C183.485 361.105 187.124 359.46 187.307 359.127C187.655 358.495 189.719 359.577 190.301 357.382C190.809 353.573 194.034 351.729 191.754 349.598C195.061 349.214 195.411 346.648 192.104 345.815Z" fill="#FFAF99"/>
<path d="M176.491 363.345C166.195 387.107 138.042 402.649 115.855 392.592C94.9444 378.683 100.093 328.182 111.281 317.147C113.698 314.762 120.749 319.571 121.38 324.276C124.106 344.579 136.529 329.919 138.013 369.721C145.736 367.444 152.118 358.778 168.544 352.286C171.578 357.839 174.3 359.186 176.491 363.345Z" fill="#E5B735"/>
<path d="M121.499 324.256L121.78 325.793C121.873 326.305 122.01 326.802 122.122 327.306C122.37 328.308 122.688 329.291 123.049 330.252C123.443 331.198 123.866 332.133 124.427 332.982C124.97 333.842 125.603 334.641 126.315 335.368C127.727 336.834 129.41 338.089 130.869 339.656C131.611 340.43 132.284 341.268 132.88 342.16L133.321 342.834L133.722 343.531C133.999 343.992 134.226 344.476 134.462 344.956C134.919 345.919 135.321 346.908 135.667 347.916C135.856 348.415 136.002 348.924 136.157 349.431C136.315 349.938 136.466 350.446 136.588 350.96C136.716 351.473 136.857 351.983 136.974 352.499L137.303 354.046C137.521 355.079 137.68 356.119 137.864 357.156C138.006 358.197 138.175 359.237 138.295 360.28C138.406 361.322 138.546 362.365 138.636 363.41C138.726 364.454 138.835 365.499 138.908 366.544L139.125 369.68L137.698 368.654C138.336 368.399 138.986 368.203 139.603 367.875C140.232 367.595 140.841 367.242 141.453 366.899C142.061 366.543 142.659 366.155 143.262 365.773L145.054 364.559L148.663 362.055C149.885 361.218 151.122 360.403 152.373 359.612C152.998 359.209 153.632 358.821 154.276 358.449C154.913 358.066 155.559 357.697 156.213 357.343C156.863 356.981 157.511 356.617 158.184 356.297C158.852 355.97 159.511 355.625 160.185 355.314L162.223 354.412C162.901 354.112 163.601 353.86 164.292 353.592L165.33 353.195C165.678 353.069 166.034 352.962 166.386 352.845L168.5 352.175C168.516 352.17 168.531 352.168 168.547 352.17C168.563 352.171 168.578 352.176 168.592 352.183C168.606 352.19 168.619 352.2 168.629 352.212C168.639 352.225 168.647 352.239 168.652 352.254C168.66 352.28 168.659 352.31 168.648 352.336C168.638 352.362 168.618 352.383 168.593 352.396L168.589 352.399L166.636 353.431C165.982 353.762 165.336 354.11 164.699 354.472C164.063 354.836 163.412 355.169 162.783 355.539L160.897 356.65C160.269 357.019 159.658 357.418 159.039 357.801C158.419 358.18 157.817 358.591 157.207 358.986C156.595 359.378 155.992 359.785 155.399 360.205L153.61 361.456C152.418 362.292 151.254 363.171 150.07 364.036C148.889 364.903 147.707 365.779 146.476 366.622C145.876 367.055 145.23 367.449 144.604 367.862C143.961 368.266 143.305 368.649 142.637 369.012C141.956 369.368 141.276 369.724 140.545 370.008C139.843 370.335 139.072 370.541 138.329 370.79L136.941 371.255L136.902 369.763L136.822 366.661C136.79 365.627 136.723 364.597 136.675 363.564C136.629 362.531 136.524 361.506 136.449 360.475C136.366 359.446 136.236 358.425 136.132 357.399C135.986 356.382 135.865 355.357 135.687 354.346L135.418 352.83C135.322 352.326 135.202 351.829 135.095 351.327C134.991 350.827 134.869 350.33 134.729 349.838C134.597 349.345 134.474 348.848 134.308 348.367C134.012 347.395 133.66 346.441 133.256 345.509C133.049 345.047 132.849 344.581 132.603 344.141L132.249 343.472L131.857 342.826C131.327 341.965 130.727 341.15 130.062 340.389C128.747 338.845 127.126 337.52 125.712 335.926C124.999 335.132 124.372 334.265 123.842 333.339C123.293 332.423 122.897 331.433 122.534 330.443C122.203 329.444 121.936 328.425 121.735 327.392C121.646 326.875 121.534 326.36 121.466 325.844L121.263 324.296C121.259 324.264 121.267 324.232 121.287 324.207C121.306 324.181 121.335 324.164 121.366 324.16C121.397 324.156 121.427 324.164 121.452 324.182C121.477 324.2 121.493 324.226 121.499 324.256Z" fill="white"/>
<path d="M363.642 366.848C362.211 364.672 359.616 365.139 355.158 366.403C348.77 368.215 328.145 366.135 328.145 366.135L315.236 375.58L330.544 380.309C332.451 385.214 337.207 386.772 340.677 384.652L362.664 371.212C364.067 370.346 364.549 368.225 363.642 366.848Z" fill="#FF5252"/>
<path d="M245.538 361.107C269.527 368.163 276.611 370.48 327.598 379.787L334.037 366.269C293.89 344.638 266.217 331.482 234.843 325.244C217.429 331.666 176.977 390.247 166.877 411.121C162.515 423.946 188.637 441.833 197.768 438.447C211.667 433.294 235.194 396.468 245.538 361.107Z" fill="#26A69A"/>
<path d="M190.824 330.47C193.389 333.47 190.15 336.169 190.15 336.169C190.15 336.169 196.663 332.754 193.673 328.48C190.879 324.49 188.736 322.508 200.335 315.679C200.335 315.679 182.128 320.295 190.824 330.47Z" fill="#D69176"/>
<path d="M195.408 303.483C195.408 303.483 200.933 309.097 190.168 317.729C181.533 324.653 188.198 328.603 190.163 333.113C185.122 328.495 181.425 324.427 183.907 320.646C187.547 315.092 197.637 312.4 195.408 303.483Z" fill="#D69176"/>
<path d="M249.817 345.654L249.953 346.348C249.998 346.568 250.047 346.837 250.1 347.145C250.148 347.455 250.171 347.817 250.212 348.211L250.271 348.829L250.289 349.486C250.299 349.937 250.313 350.418 250.272 350.911C250.239 351.404 250.229 351.921 250.141 352.434C250.072 352.951 249.999 353.479 249.885 353.998C249.79 354.521 249.686 355.042 249.572 355.562C249.479 356.085 249.316 356.578 249.149 357.052C248.952 357.513 248.735 357.947 248.486 358.336C248.256 358.706 248.002 359.059 247.724 359.394C247.469 359.708 247.201 359.974 246.964 360.207C246.718 360.434 246.495 360.621 246.296 360.765C245.905 361.056 245.635 361.18 245.635 361.18C245.612 361.19 245.588 361.195 245.564 361.192C245.539 361.19 245.516 361.181 245.497 361.167C245.477 361.152 245.461 361.133 245.452 361.11C245.442 361.088 245.439 361.063 245.442 361.039L245.443 361.035C245.443 361.035 245.48 360.752 245.574 360.293C245.619 360.063 245.681 359.791 245.756 359.485C245.831 359.179 245.922 358.844 246.021 358.479C246.235 357.759 246.477 356.935 246.83 356.098C246.998 355.676 247.235 355.264 247.44 354.827C247.658 354.395 247.867 353.948 248.029 353.484C248.211 353.025 248.353 352.556 248.493 352.091C248.645 351.628 248.752 351.162 248.872 350.711C249.005 350.262 249.064 349.818 249.156 349.397L249.28 348.781L249.355 348.206C249.4 347.835 249.458 347.495 249.48 347.184C249.495 346.872 249.51 346.6 249.528 346.375L249.577 345.67C249.579 345.64 249.591 345.612 249.612 345.592C249.633 345.571 249.661 345.558 249.69 345.556C249.719 345.554 249.748 345.563 249.772 345.581C249.795 345.599 249.811 345.625 249.817 345.654Z" fill="white"/>
<path d="M243.28 349.795C243.28 349.795 243.569 350.471 243.953 351.495C244.15 352.006 244.382 352.602 244.606 353.245C244.845 353.886 245.063 354.576 245.293 355.264C245.51 355.955 245.858 356.619 246.014 357.277C246.159 357.937 246.152 358.583 246.113 359.144C246.078 359.615 245.992 360.08 245.859 360.533C245.805 360.721 245.737 360.905 245.656 361.083C245.646 361.103 245.631 361.122 245.613 361.136C245.594 361.15 245.573 361.16 245.55 361.165C245.528 361.17 245.504 361.169 245.482 361.164C245.459 361.158 245.438 361.147 245.42 361.133C245.42 361.133 245.245 360.985 245.013 360.712C244.708 360.352 244.443 359.96 244.221 359.543C243.958 359.046 243.693 358.457 243.559 357.795C243.436 357.13 243.487 356.383 243.408 355.663C243.341 354.94 243.262 354.22 243.222 353.538C243.168 352.859 243.141 352.22 243.114 351.673C243.053 350.581 243.045 349.846 243.045 349.846C243.044 349.817 243.054 349.79 243.072 349.768C243.089 349.745 243.114 349.73 243.142 349.724C243.17 349.718 243.198 349.722 243.224 349.735C243.249 349.748 243.269 349.769 243.28 349.795Z" fill="white"/>
<path d="M306.315 433.024C289.91 433.024 276.612 419.725 276.612 403.321C276.612 386.916 289.91 373.618 306.315 373.618C322.719 373.618 336.017 386.916 336.017 403.321C336.017 419.725 322.719 433.024 306.315 433.024Z" fill="#D69176"/>
<path d="M305.917 536.545H276.611V403.102H336.017V506.445C336.017 523.068 322.541 536.545 305.917 536.545Z" fill="#D69176"/>
<path d="M111.203 536.545H208.808V403.321C208.808 386.916 195.51 373.618 179.105 373.618H70.6447C52.5679 373.618 38.6821 389.629 41.2406 407.525L52.3951 485.547C56.5784 514.809 81.6421 536.545 111.203 536.545Z" fill="#B76F58"/>
<path d="M208.803 403.102C208.684 386.798 195.436 373.617 179.105 373.617C162.774 373.617 149.526 386.798 149.407 403.102H149.402V506.841C149.402 523.245 162.7 536.543 179.105 536.543H208.808V403.102L208.803 403.102Z" fill="#D69176"/>
<path d="M335.656 509.735L335.165 483.077L334.933 469.748L334.753 456.418L334.392 429.76L334.132 403.102L335.836 404.806H335.831C335.398 404.81 334.98 404.647 334.664 404.351C334.348 404.055 334.158 403.649 334.132 403.217L334.127 403.114C334.089 402.456 334.096 401.796 334.018 401.142C333.971 400.485 333.882 399.833 333.785 399.183C333.748 398.856 333.673 398.535 333.614 398.212C333.548 397.891 333.502 397.564 333.416 397.247C333.266 396.607 333.108 395.97 332.909 395.344C332.821 395.028 332.72 394.716 332.607 394.408C332.495 394.099 332.394 393.786 332.276 393.48L331.905 392.568C331.789 392.261 331.636 391.97 331.501 391.671C331.238 391.069 330.914 390.498 330.614 389.915C330.276 389.352 329.963 388.775 329.59 388.235C329.342 387.805 329.077 387.386 328.795 386.978C328.528 386.558 328.228 386.163 327.932 385.762C327.34 384.962 326.69 384.205 326.017 383.467C325.674 383.104 325.319 382.753 324.967 382.397C324.597 382.062 324.238 381.711 323.857 381.386C323.095 380.736 322.31 380.108 321.48 379.54C321.07 379.248 320.649 378.972 320.219 378.712C319.794 378.439 319.358 378.188 318.913 377.949C318.032 377.456 317.115 377.028 316.183 376.635C315.249 376.243 314.289 375.913 313.317 375.615L311.843 375.222C311.345 375.121 310.849 375.003 310.347 374.912C309.341 374.734 308.326 374.606 307.307 374.528C306.8 374.507 306.276 374.451 305.779 374.455C305.251 374.449 304.72 374.44 304.221 374.466C303.21 374.485 302.17 374.587 301.15 374.713C300.638 374.776 300.129 374.871 299.618 374.95C299.113 375.057 298.602 375.145 298.098 375.269C297.092 375.511 296.087 375.779 295.108 376.124C294.12 376.45 293.159 376.849 292.205 377.269C291.265 377.716 290.329 378.182 289.438 378.726C288.533 379.249 287.679 379.855 286.837 380.478L286.832 380.482C286.793 380.51 286.745 380.522 286.698 380.515C286.651 380.508 286.608 380.483 286.58 380.444C286.552 380.407 286.54 380.361 286.545 380.316C286.551 380.27 286.573 380.228 286.608 380.199C287.419 379.514 288.249 378.844 289.136 378.253C290.009 377.641 290.933 377.106 291.867 376.587C292.814 376.095 293.776 375.623 294.77 375.224C295.756 374.805 296.774 374.463 297.8 374.145C298.312 373.985 298.835 373.86 299.353 373.716C299.878 373.6 300.4 373.468 300.93 373.369C301.992 373.17 303.046 372.997 304.141 372.905C304.694 372.844 305.218 372.82 305.744 372.793C306.301 372.755 306.832 372.776 307.378 372.765C308.464 372.773 309.55 372.846 310.634 372.962C311.176 373.026 311.714 373.115 312.254 373.191L313.862 373.509C314.927 373.76 315.985 374.049 317.023 374.407C318.059 374.767 319.085 375.168 320.079 375.641C320.581 375.869 321.075 376.113 321.558 376.379C322.049 376.63 322.524 376.91 322.997 377.196C323.947 377.761 324.856 378.393 325.743 379.056C326.186 379.389 326.609 379.748 327.042 380.094C327.457 380.462 327.876 380.827 328.283 381.205C329.085 381.974 329.863 382.773 330.585 383.623C330.945 384.048 331.309 384.472 331.64 384.922C331.985 385.361 332.316 385.812 332.627 386.277C333.039 386.893 333.389 387.547 333.761 388.187C334.095 388.848 334.451 389.498 334.742 390.18C334.89 390.519 335.057 390.85 335.185 391.197L335.592 392.23C335.721 392.577 335.833 392.93 335.954 393.279C336.078 393.629 336.187 393.982 336.283 394.34C336.499 395.048 336.67 395.767 336.831 396.489C336.922 396.848 336.973 397.215 337.043 397.578C337.105 397.942 337.183 398.304 337.222 398.672C337.322 399.405 337.408 400.139 337.451 400.876C337.523 401.612 337.509 402.351 337.537 403.088L335.832 401.395H335.837L335.867 401.396C336.088 401.397 336.307 401.443 336.512 401.529C336.716 401.616 336.901 401.741 337.056 401.899C337.212 402.057 337.335 402.244 337.418 402.45C337.501 402.655 337.543 402.875 337.541 403.097V403.1L337.281 429.758L336.92 456.417L336.739 469.746L336.508 483.075L336.017 509.733C336.017 509.757 336.012 509.78 336.002 509.802C335.993 509.824 335.979 509.843 335.962 509.86C335.945 509.876 335.925 509.889 335.903 509.898C335.881 509.907 335.857 509.911 335.833 509.91C335.787 509.91 335.742 509.892 335.709 509.859C335.676 509.826 335.656 509.782 335.656 509.735ZM208.627 509.735L208.136 483.077L207.905 469.748L207.724 456.418L207.363 429.76L207.103 403.102L208.808 404.806H208.802C208.37 404.81 207.952 404.647 207.636 404.351C207.32 404.055 207.129 403.649 207.104 403.217L207.098 403.114C207.061 402.456 207.067 401.796 206.99 401.142C206.943 400.485 206.853 399.833 206.756 399.183C206.719 398.856 206.645 398.535 206.586 398.212C206.52 397.891 206.474 397.564 206.388 397.247C206.237 396.607 206.079 395.97 205.88 395.344C205.793 395.028 205.692 394.715 205.578 394.408C205.467 394.099 205.366 393.786 205.248 393.48L204.876 392.568C204.761 392.261 204.607 391.97 204.473 391.671C204.21 391.069 203.885 390.498 203.585 389.915C203.247 389.352 202.934 388.775 202.561 388.235C202.313 387.805 202.048 387.386 201.766 386.978C201.499 386.559 201.199 386.163 200.904 385.762C200.311 384.962 199.662 384.205 198.988 383.467C198.646 383.104 198.29 382.753 197.939 382.397C197.569 382.062 197.209 381.711 196.829 381.386C196.067 380.736 195.282 380.108 194.452 379.54C194.042 379.248 193.621 378.972 193.191 378.712C192.766 378.439 192.33 378.188 191.885 377.949C191.004 377.456 190.087 377.028 189.155 376.635C188.221 376.243 187.261 375.913 186.289 375.615L184.815 375.222C184.317 375.121 183.821 375.003 183.319 374.912C182.313 374.733 181.298 374.606 180.278 374.528C179.771 374.507 179.248 374.451 178.751 374.455C178.222 374.449 177.691 374.44 177.193 374.466C176.182 374.485 175.142 374.587 174.121 374.713C173.608 374.776 173.101 374.871 172.589 374.95C172.084 375.057 171.573 375.145 171.07 375.269C170.064 375.511 169.058 375.779 168.079 376.124C167.092 376.45 166.13 376.849 165.177 377.269C164.236 377.716 163.301 378.181 162.409 378.725C161.504 379.249 160.651 379.854 159.809 380.478L159.803 380.481C159.765 380.509 159.719 380.521 159.672 380.514C159.626 380.508 159.584 380.484 159.555 380.447C159.526 380.411 159.513 380.364 159.517 380.318C159.522 380.271 159.544 380.228 159.58 380.198C160.391 379.513 161.221 378.843 162.107 378.252C162.981 377.64 163.904 377.105 164.838 376.587C165.785 376.094 166.747 375.622 167.741 375.223C168.727 374.804 169.745 374.462 170.77 374.145C171.283 373.984 171.805 373.859 172.324 373.715C172.849 373.599 173.372 373.468 173.901 373.368C174.963 373.169 176.017 372.996 177.113 372.905C177.665 372.843 178.189 372.82 178.715 372.793C179.272 372.754 179.803 372.775 180.35 372.764C181.436 372.772 182.522 372.845 183.606 372.962C184.147 373.025 184.685 373.114 185.226 373.19L186.834 373.508C187.898 373.759 188.956 374.048 189.994 374.406C191.03 374.766 192.057 375.167 193.051 375.64C193.552 375.868 194.046 376.112 194.529 376.378C195.021 376.629 195.495 376.909 195.968 377.195C196.918 377.76 197.827 378.392 198.715 379.055C199.157 379.388 199.58 379.746 200.014 380.093C200.429 380.461 200.848 380.826 201.255 381.204C202.056 381.973 202.835 382.771 203.556 383.621C203.917 384.047 204.28 384.471 204.611 384.921C204.957 385.36 205.287 385.811 205.599 386.276C206.01 386.892 206.361 387.545 206.732 388.186C207.066 388.847 207.422 389.497 207.713 390.178C207.861 390.517 208.028 390.849 208.156 391.196L208.563 392.229C208.692 392.576 208.804 392.929 208.925 393.278C209.049 393.627 209.158 393.981 209.255 394.338C209.47 395.046 209.642 395.766 209.802 396.488C209.894 396.847 209.944 397.214 210.014 397.577C210.077 397.941 210.154 398.304 210.193 398.671C210.294 399.404 210.38 400.137 210.422 400.875C210.495 401.61 210.481 402.35 210.508 403.087L208.803 401.394H208.808L208.838 401.394C209.06 401.396 209.279 401.441 209.483 401.528C209.687 401.614 209.872 401.74 210.028 401.898C210.183 402.056 210.306 402.243 210.389 402.449C210.473 402.654 210.514 402.874 210.513 403.096V403.099L210.253 429.757L209.891 456.415L209.711 469.745L209.48 483.074L208.989 509.732C208.989 509.756 208.984 509.779 208.974 509.801C208.965 509.823 208.951 509.842 208.934 509.859C208.917 509.875 208.896 509.888 208.874 509.897C208.852 509.905 208.829 509.91 208.805 509.909C208.782 509.909 208.759 509.905 208.737 509.896C208.716 509.888 208.697 509.875 208.68 509.859C208.664 509.843 208.65 509.823 208.641 509.802C208.632 509.781 208.627 509.758 208.627 509.735Z" fill="#B76F58"/>
<path d="M144.248 323.795C133.704 322.532 131.773 315.478 131.773 315.478C131.773 315.478 133.646 303.931 135.932 306.066C138.217 308.201 151.228 311.171 153.753 309.538C155.477 308.423 155.955 313.927 156.084 319.043C156.144 321.42 153.62 324.917 144.248 323.795Z" fill="#E5B735"/>
<path d="M191.118 329.99C193.683 332.989 190.444 335.689 190.444 335.689C190.444 335.689 196.956 332.273 193.967 328C191.173 324.01 189.03 322.028 200.629 315.199C200.629 315.198 182.423 319.815 191.118 329.99Z" fill="white"/>
<path d="M195.702 303.003C195.702 303.003 201.226 308.617 190.461 317.249C181.827 324.172 188.492 328.123 190.457 332.633C185.416 328.014 181.719 323.947 184.201 320.165C187.84 314.612 197.93 311.92 195.702 303.003Z" fill="white"/>
</svg>
