<svg width="365" height="285" viewBox="0 0 365 285" fill="none" xmlns="http://www.w3.org/2000/svg">
<g filter="url(#filter0_d_61_972)">
<path d="M4 111H197L292 281H99L4 111Z" fill="white"/>
</g>
<path d="M28 132L38.0845 125.896C43.6717 122.515 50.558 122.074 56.5307 124.716L65.3318 128.608C70.2371 130.778 75.8084 130.886 80.7944 128.909L95.3102 123.153C99.6344 121.438 104.421 121.284 108.846 122.718L128.982 129.241C134.357 130.982 140.234 130.145 144.909 126.972V126.972C149.113 124.12 154.313 123.141 159.265 124.271L172.1 127.198C177.167 128.354 182.484 127.492 186.926 124.795L194 120.5" stroke="#224398" stroke-width="2"/>
<path d="M37 147.5L47.0845 141.396C52.6717 138.015 59.558 137.574 65.5307 140.216L74.3318 144.108C79.2371 146.278 84.8084 146.386 89.7944 144.409L104.31 138.653C108.634 136.938 113.421 136.784 117.846 138.218L137.982 144.741C143.357 146.482 149.234 145.645 153.909 142.472V142.472C158.113 139.62 163.313 138.641 168.265 139.771L181.1 142.698C186.167 143.854 191.484 142.992 195.926 140.295L203 136" stroke="#224398" stroke-width="2"/>
<path d="M46 163L56.0845 156.896C61.6717 153.515 68.558 153.074 74.5307 155.716L83.3318 159.608C88.2371 161.778 93.8084 161.886 98.7944 159.909L113.31 154.153C117.634 152.438 122.421 152.284 126.846 153.718L146.982 160.241C152.357 161.982 158.234 161.145 162.909 157.972V157.972C167.113 155.12 172.313 154.141 177.265 155.271L190.1 158.198C195.167 159.354 200.484 158.492 204.926 155.795L212 151.5" stroke="#224398" stroke-width="2"/>
<path d="M55 178.5L65.0845 172.396C70.6717 169.015 77.558 168.574 83.5307 171.216L92.3318 175.108C97.2371 177.278 102.808 177.386 107.794 175.409L122.31 169.653C126.634 167.938 131.421 167.784 135.846 169.218L155.982 175.741C161.357 177.482 167.234 176.645 171.909 173.472V173.472C176.113 170.62 181.313 169.641 186.265 170.771L199.1 173.698C204.167 174.854 209.484 173.992 213.926 171.295L221 167" stroke="#224398" stroke-width="2"/>
<path d="M64 194L74.0845 187.896C79.6717 184.515 86.558 184.074 92.5307 186.716L101.332 190.608C106.237 192.778 111.808 192.886 116.794 190.909L131.31 185.153C135.634 183.438 140.421 183.284 144.846 184.718L164.982 191.241C170.357 192.982 176.234 192.145 180.909 188.972V188.972C185.113 186.12 190.313 185.141 195.265 186.271L208.1 189.198C213.167 190.354 218.484 189.492 222.926 186.795L230 182.5" stroke="#224398" stroke-width="2"/>
<path d="M73 209.5L83.0845 203.396C88.6717 200.015 95.558 199.574 101.531 202.216L110.332 206.108C115.237 208.278 120.808 208.386 125.794 206.409L140.31 200.653C144.634 198.938 149.421 198.784 153.846 200.218L173.982 206.741C179.357 208.482 185.234 207.645 189.909 204.472V204.472C194.113 201.62 199.313 200.641 204.265 201.771L217.1 204.698C222.167 205.854 227.484 204.992 231.926 202.295L239 198" stroke="#224398" stroke-width="2"/>
<path d="M79 223.5L89.0845 217.396C94.6717 214.015 101.558 213.574 107.531 216.216L116.332 220.108C121.237 222.278 126.808 222.386 131.794 220.409L146.31 214.653C150.634 212.938 155.421 212.784 159.846 214.218L179.982 220.741C185.357 222.482 191.234 221.645 195.909 218.472V218.472C200.113 215.62 205.313 214.641 210.265 215.771L223.1 218.698C228.167 219.854 233.484 218.992 237.926 216.295L245 212" stroke="#224398" stroke-width="2"/>
<path d="M85 237.5L95.0845 231.396C100.672 228.015 107.558 227.574 113.531 230.216L122.332 234.108C127.237 236.278 132.808 236.386 137.794 234.409L152.31 228.653C156.634 226.938 161.421 226.784 165.846 228.218L185.982 234.741C191.357 236.482 197.234 235.645 201.909 232.472V232.472C206.113 229.62 211.313 228.641 216.265 229.771L229.1 232.698C234.167 233.854 239.484 232.992 243.926 230.295L251 226" stroke="#224398" stroke-width="2"/>
<path d="M157 266.5L165.978 263.175C168.928 262.082 171.492 260.148 173.352 257.611L178.715 250.298C180.317 248.113 180.086 245.086 178.169 243.169L177.875 242.875C175.781 240.781 172.35 240.904 170.411 243.142V243.142C168.742 245.067 168.749 247.927 170.426 249.844L174.083 254.023C178.202 258.73 185.331 259.274 190.116 255.245L196.934 249.503C198.873 247.87 199.044 244.94 197.315 243.087V243.087C195.37 241.003 191.984 241.273 190.403 243.645V243.645C189.284 245.325 189.445 247.55 190.796 249.051L199.585 258.817C201.182 260.591 203.084 262.065 205.2 263.17L213.5 267.5" stroke="#224398" stroke-width="2"/>
<path fill-rule="evenodd" clip-rule="evenodd" d="M232.953 242.851L225.2 239C225.2 239 222.397 243.117 220.335 245.562C218.218 248.071 216.974 249.267 214.356 251.307C215.249 254.155 215.524 255.858 215.569 258.829C215.598 260.735 215.185 263.306 214.888 264.894L214.065 266.342C213.929 266.582 214.013 266.887 214.253 267.023C214.493 267.16 214.798 267.076 214.935 266.836L215.846 265.232C217.194 264.057 219.386 262.229 221.189 261.127C223.613 259.646 225.373 258.932 228.178 258.294C228.664 255.115 229.053 253.452 230.026 250.376C230.975 247.377 232.953 242.851 232.953 242.851Z" fill="#747474"/>
<path d="M214.5 266.589L223.254 251.554" stroke="#AEAEAE" stroke-linecap="round"/>
<ellipse cx="223.801" cy="250.517" rx="1.6413" ry="1.55534" fill="#AEAEAE"/>
<rect x="222.923" y="237" width="14.36" height="2" rx="1" transform="rotate(27.4754 222.923 237)" fill="#747474"/>
<path d="M228.904 222.322C229.012 221.662 229.725 221.292 230.326 221.584L244.342 228.368C244.946 228.661 245.096 229.455 244.64 229.948L239.388 235.618C239.307 235.706 239.243 235.807 239.197 235.917L235.947 243.816C235.725 244.354 235.093 244.59 234.573 244.329L222.909 238.468C222.36 238.192 222.188 237.491 222.546 236.991L227.532 230.041C227.622 229.916 227.682 229.772 227.707 229.62L228.904 222.322Z" fill="#5F5F5F"/>
<rect x="328.085" y="7.35931" width="27.3417" height="166.264" rx="2" transform="rotate(25.8301 328.085 7.35931)" fill="#767676"/>
<path d="M336.983 20.917C336.324 19.1597 338.23 17.5442 339.856 18.4823L345.448 21.7101C346.351 22.231 346.702 23.3576 346.256 24.2992L291.503 139.784C290.855 141.152 288.976 141.321 288.093 140.092V140.092C287.676 139.512 287.603 138.753 287.9 138.104L338.715 27.2126C338.936 26.7284 338.956 26.1757 338.769 25.677L336.983 20.917Z" fill="black" fill-opacity="0.2"/>
<path d="M334 10.8011C334 10.8011 341.648 1.29032 345.856 3.209C350.125 5.15547 347.501 17.3366 347.501 17.3366" stroke="#747474" stroke-width="4"/>
<path d="M350.194 22.688L356.021 22.2891C358.675 22.1075 361.049 23.9305 361.558 26.5413V26.5413C361.788 27.7192 361.61 28.9403 361.052 30.0029L318.92 110.259M318.92 110.259L311.044 125.264C309.477 128.248 305.017 127.542 304.448 124.22V124.22C304.361 123.708 304.385 123.177 304.538 122.681C307.795 112.119 315.433 109.984 318.92 110.259Z" stroke="#747474" stroke-width="4"/>
<rect x="258.371" y="156" width="22.34" height="72" rx="1" transform="rotate(25.83 258.371 156)" fill="#767676"/>
<line x1="258.012" y1="156.329" x2="279.329" y2="166.988" stroke="#5F5F5F" stroke-width="3" stroke-linecap="round"/>
<defs>
<filter id="filter0_d_61_972" x="0" y="107" width="296" height="178" filterUnits="userSpaceOnUse" color-interpolation-filters="sRGB">
<feFlood flood-opacity="0" result="BackgroundImageFix"/>
<feColorMatrix in="SourceAlpha" type="matrix" values="0 0 0 0 0 0 0 0 0 0 0 0 0 0 0 0 0 0 127 0" result="hardAlpha"/>
<feOffset/>
<feGaussianBlur stdDeviation="2"/>
<feComposite in2="hardAlpha" operator="out"/>
<feColorMatrix type="matrix" values="0 0 0 0 0 0 0 0 0 0 0 0 0 0 0 0 0 0 0.25 0"/>
<feBlend mode="normal" in2="BackgroundImageFix" result="effect1_dropShadow_61_972"/>
<feBlend mode="normal" in="SourceGraphic" in2="effect1_dropShadow_61_972" result="shape"/>
</filter>
</defs>
</svg>
