<svg width="39" height="32" viewBox="0 0 39 32" fill="none" xmlns="http://www.w3.org/2000/svg">
<path d="M1.21875 3.10288H37.7812C38.1045 3.10288 38.4145 2.93943 38.643 2.64848C38.8716 2.35753 39 1.96291 39 1.55144C39 1.13997 38.8716 0.745359 38.643 0.454407C38.4145 0.163455 38.1045 0 37.7812 0H1.21875C0.895517 0 0.585524 0.163455 0.356964 0.454407C0.128404 0.745359 0 1.13997 0 1.55144C0 1.96291 0.128404 2.35753 0.356964 2.64848C0.585524 2.93943 0.895517 3.10288 1.21875 3.10288ZM37.7812 13.963H1.21875C0.895517 13.963 0.585524 14.1264 0.356964 14.4174C0.128404 14.7083 0 15.103 0 15.5144C0 15.9259 0.128404 16.3205 0.356964 16.6115C0.585524 16.9024 0.895517 17.0659 1.21875 17.0659H37.7812C38.1045 17.0659 38.4145 16.9024 38.643 16.6115C38.8716 16.3205 39 15.9259 39 15.5144C39 15.103 38.8716 14.7083 38.643 14.4174C38.4145 14.1264 38.1045 13.963 37.7812 13.963ZM37.7812 27.926H1.21875C0.895517 27.926 0.585524 28.0894 0.356964 28.3804C0.128404 28.6713 0 29.0659 0 29.4774C0 29.8889 0.128404 30.2835 0.356964 30.5744C0.585524 30.8654 0.895517 31.0288 1.21875 31.0288H37.7812C38.1045 31.0288 38.4145 30.8654 38.643 30.5744C38.8716 30.2835 39 29.8889 39 29.4774C39 29.0659 38.8716 28.6713 38.643 28.3804C38.4145 28.0894 38.1045 27.926 37.7812 27.926Z" fill="#1C1C1C"/>
</svg>
